<?xml version="1.0" standalone="no"?>
<!DOCTYPE svg PUBLIC "-//W3C//DTD SVG 20010904//EN"
 "http://www.w3.org/TR/2001/REC-SVG-20010904/DTD/svg10.dtd">
<svg version="1.0" xmlns="http://www.w3.org/2000/svg"
 width="781.000000pt" height="828.000000pt" viewBox="0 0 781.000000 828.000000"
 preserveAspectRatio="xMidYMid meet">

<g transform="translate(0.000000,828.000000) scale(0.100000,-0.100000)"
fill="#000000" stroke="none">
<path d="M1665 7540 l-970 -5 -86 -950 c-80 -883 -106 -1148 -144 -1510 -24
-234 -103 -1113 -125 -1400 -11 -148 -54 -643 -95 -1100 -42 -456 -76 -850
-78 -874 l-2 -43 3750 0 3750 0 -3 43 c-5 90 -144 1607 -187 2043 -48 488 -94
994 -150 1671 -20 237 -71 810 -113 1275 l-77 845 -1100 6 c-1249 7 -2945 7
-4370 -1z m995 -247 c20 -25 21 -36 16 -98 -6 -58 -11 -74 -32 -92 -25 -23
-25 -23 -399 -23 l-374 0 -20 26 c-18 23 -20 35 -15 98 5 51 12 77 27 94 l20
22 378 0 378 0 21 -27z m3270 9 c20 -16 24 -31 28 -99 7 -132 36 -123 -413
-123 l-376 0 -24 25 c-22 22 -25 32 -25 104 0 119 -29 111 416 111 346 0 373
-1 394 -18z m-976 -83 c14 -7 28 -19 31 -27 3 -8 8 -77 12 -153 9 -192 11
-189 -147 -189 -155 0 -160 4 -160 124 0 45 -3 110 -6 144 -6 56 -5 62 19 86
25 25 32 26 126 26 55 0 111 -5 125 -11z m-1843 -20 c19 -19 20 -30 17 -171
-4 -191 -1 -188 -160 -188 -102 0 -110 1 -133 25 -22 22 -25 32 -24 102 1 139
13 224 34 239 13 10 51 14 132 14 101 0 115 -2 134 -21z m-442 -284 c33 -17
38 -27 47 -95 9 -72 18 -75 183 -61 193 17 1549 18 1894 2 197 -9 272 -9 282
-1 7 6 16 30 20 53 16 106 35 117 205 117 181 -1 575 -42 654 -68 59 -20 68
-35 91 -147 25 -123 36 -141 102 -173 147 -71 314 -217 411 -360 53 -78 133
-243 214 -437 35 -85 155 -423 250 -710 39 -115 76 -226 83 -245 17 -46 115
-374 155 -520 17 -63 44 -155 60 -205 46 -146 77 -297 109 -520 40 -281 47
-448 26 -589 -29 -194 -73 -296 -198 -458 -24 -31 -167 -148 -181 -148 -2 0
-27 -16 -55 -35 -29 -19 -69 -37 -89 -41 -20 -4 -42 -10 -48 -15 -6 -5 -55
-21 -110 -36 -85 -24 -118 -28 -234 -28 -133 0 -136 1 -203 33 -37 18 -73 42
-80 53 -6 10 -16 19 -20 19 -24 0 -196 157 -251 229 -48 62 -131 199 -141 233
-4 13 -13 30 -20 38 -24 28 -115 210 -115 230 0 10 -4 22 -10 25 -5 3 -28 46
-51 95 -40 86 -44 90 -107 127 -78 46 -213 186 -266 278 -27 45 -52 73 -89 98
-63 41 -96 52 -212 71 -201 33 -403 41 -1045 41 -643 0 -838 -8 -1050 -41
-122 -20 -150 -28 -238 -78 -65 -36 -76 -47 -108 -106 -83 -150 -188 -263
-292 -311 l-47 -22 -140 -280 c-76 -154 -149 -292 -161 -306 -12 -14 -33 -49
-47 -77 -14 -27 -44 -66 -66 -85 -23 -19 -67 -59 -99 -89 -32 -30 -76 -64 -98
-75 -21 -11 -50 -28 -63 -38 -86 -63 -322 -81 -476 -37 -174 49 -269 97 -382
192 -31 27 -59 48 -63 48 -10 0 -87 100 -109 142 -10 18 -35 64 -56 102 -41
76 -48 97 -71 204 -18 87 -21 399 -4 477 6 28 17 95 25 150 42 290 128 641
229 930 118 339 146 418 155 429 5 6 15 34 22 61 22 89 304 755 406 960 79
158 207 367 275 449 63 76 170 174 215 196 43 22 63 41 63 63 0 44 43 193 61
213 25 27 70 38 224 59 271 36 585 46 634 20z"/>
<path d="M1876 7278 c-11 -15 -16 -45 -16 -90 0 -56 3 -69 19 -78 13 -6 149
-10 375 -10 420 0 396 -6 396 108 0 40 -5 73 -12 80 -9 9 -107 12 -379 12
l-368 0 -15 -22z"/>
<path d="M5157 7282 c-14 -15 -16 -31 -11 -83 11 -106 -16 -99 391 -99 225 0
361 4 374 10 16 9 19 22 19 84 0 113 27 106 -397 106 -336 0 -361 -1 -376 -18z"/>
<path d="M4726 7194 c-13 -12 -16 -41 -16 -147 0 -179 -1 -177 134 -177 66 0
106 4 114 12 8 8 12 57 12 154 0 136 -1 144 -22 158 -32 23 -200 23 -222 0z"/>
<path d="M2857 7182 c-14 -15 -17 -42 -17 -160 0 -169 -5 -162 133 -162 126 0
124 -3 128 171 3 104 0 140 -10 153 -21 25 -211 23 -234 -2z"/>
<path d="M2185 6895 c-310 -37 -350 -47 -378 -94 -18 -31 -44 -177 -33 -188 4
-4 28 1 54 11 55 21 75 27 205 60 113 29 298 52 477 61 188 9 190 9 190 49 0
46 -19 95 -40 106 -25 14 -351 10 -475 -5z"/>
<path d="M5152 6898 c-25 -13 -45 -69 -40 -113 l3 -30 179 -7 c301 -12 567
-63 709 -135 16 -8 31 -12 34 -9 8 8 -15 152 -31 190 -24 58 -48 64 -421 101
-167 16 -401 18 -433 3z"/>
<path d="M3155 6750 c-104 -5 -266 -11 -360 -14 -346 -11 -579 -35 -743 -77
-106 -27 -277 -86 -337 -117 -64 -31 -233 -196 -290 -282 -95 -144 -387 -744
-505 -1040 -165 -414 -345 -920 -391 -1104 -58 -231 -124 -563 -140 -706 -28
-250 -22 -370 27 -552 14 -51 28 -104 31 -118 3 -14 12 -32 19 -40 7 -9 19
-30 26 -47 19 -43 203 -240 247 -263 20 -11 52 -27 71 -36 19 -9 42 -21 50
-28 25 -20 131 -49 178 -48 28 1 61 11 90 28 26 15 62 35 81 45 53 28 162 140
229 234 94 132 238 338 257 369 11 17 32 47 46 66 14 19 37 55 51 80 15 25 40
63 58 85 18 22 50 72 72 110 22 39 57 90 77 115 20 25 52 71 71 104 19 32 78
102 130 155 135 138 237 191 425 220 166 26 1868 38 2330 16 398 -20 512 -64
697 -273 118 -135 149 -175 182 -237 54 -99 162 -271 189 -297 9 -10 17 -24
17 -31 0 -8 8 -21 19 -31 10 -9 26 -34 36 -56 10 -22 22 -40 26 -40 9 0 109
-144 109 -156 0 -3 14 -22 30 -41 17 -18 30 -40 30 -48 0 -8 17 -32 38 -53 21
-21 51 -56 67 -77 101 -136 198 -219 306 -261 86 -34 150 -31 234 13 33 17 86
44 118 60 38 20 89 62 146 121 206 212 274 481 226 904 -22 192 -86 503 -150
733 -8 28 -26 93 -41 145 -120 430 -394 1247 -512 1527 -84 198 -141 304 -218
407 -72 94 -195 207 -295 268 -87 53 -255 122 -396 162 -200 57 -306 68 -848
91 -77 3 -165 8 -195 11 -103 9 -1424 12 -1615 4z m826 -136 c77 -41 82 -49
77 -139 l-3 -60 -76 -39 -75 -39 -65 32 c-93 48 -90 44 -87 130 l3 76 70 37
c39 21 74 38 79 38 4 0 39 -16 77 -36z m1908 -290 c85 -36 151 -125 151 -206
0 -114 -96 -205 -225 -215 -115 -10 -230 66 -261 172 -53 183 144 329 335 249z
m-2622 -20 c20 -17 42 -47 50 -69 12 -35 11 -43 -8 -82 -56 -116 -243 -109
-289 11 -14 38 -5 79 28 118 56 66 152 76 219 22z m1439 17 c57 -26 84 -64 84
-118 0 -80 -58 -133 -145 -133 -165 0 -212 205 -60 258 44 15 75 14 121 -7z
m-2541 -127 c200 -41 347 -172 385 -340 89 -397 -368 -723 -775 -553 -189 78
-314 297 -276 481 19 92 75 194 139 257 90 88 169 129 302 156 89 18 134 18
225 -1z m3292 -285 c80 -38 143 -130 143 -209 0 -82 -66 -175 -145 -206 -70
-26 -179 -17 -241 21 -92 57 -139 162 -114 254 12 47 68 114 114 138 69 37
168 37 243 2z m915 5 c103 -35 171 -126 172 -230 0 -51 -5 -68 -30 -104 -54
-81 -134 -117 -237 -106 -73 7 -122 33 -174 88 -51 56 -67 104 -60 176 15 146
172 230 329 176z m-2369 -149 c85 -55 78 -183 -13 -234 -108 -60 -240 9 -240
127 0 37 6 48 44 87 31 31 54 45 78 47 48 4 99 -6 131 -27z m1914 -276 c53
-14 117 -68 144 -122 32 -62 36 -144 11 -194 -38 -74 -113 -122 -202 -130
-153 -14 -291 107 -290 254 1 41 32 103 73 142 65 62 155 79 264 50z m-2908
-184 c103 -25 188 -72 267 -150 170 -167 211 -406 107 -623 -40 -82 -169 -210
-253 -250 -158 -75 -311 -91 -458 -49 -229 67 -377 242 -407 482 -7 59 15 185
44 250 71 160 237 298 409 339 76 19 212 19 291 1z m1973 4 c76 -16 169 -61
236 -113 216 -170 268 -458 123 -683 -91 -141 -286 -243 -463 -243 -167 1
-357 90 -458 217 -188 234 -146 553 95 727 80 57 93 64 178 86 82 22 210 25
289 9z"/>
<path d="M3833 6592 l-53 -26 0 -71 0 -71 55 -27 c31 -15 63 -27 73 -27 9 0
41 14 70 31 l53 30 -3 66 -3 66 -55 28 c-30 16 -62 28 -70 28 -8 0 -39 -12
-67 -27z"/>
<path d="M5695 6296 c-16 -7 -45 -28 -63 -47 -115 -118 -12 -308 167 -309 131
0 219 96 197 215 -9 44 -76 122 -123 141 -41 18 -139 17 -178 0z"/>
<path d="M3090 6283 c-45 -41 -51 -98 -15 -141 31 -37 76 -52 123 -41 67 15
104 82 78 144 -19 45 -52 65 -108 65 -38 0 -54 -6 -78 -27z"/>
<path d="M4568 6287 c-57 -46 -57 -109 0 -158 32 -29 40 -31 90 -27 45 4 60
10 79 32 38 45 24 123 -29 160 -34 24 -107 20 -140 -7z"/>
<path d="M2010 6164 c-109 -18 -154 -31 -216 -60 -176 -83 -286 -279 -255
-455 15 -88 46 -145 116 -215 101 -102 191 -137 355 -136 127 1 210 23 299 83
165 110 246 306 196 472 -44 144 -149 246 -302 292 -50 15 -155 25 -193 19z
m175 -122 c136 -53 214 -161 215 -298 0 -98 -22 -154 -87 -225 -93 -100 -238
-152 -360 -130 -124 24 -222 92 -270 189 -23 47 -28 70 -28 133 0 65 5 85 33
142 52 104 162 186 281 207 60 11 165 2 216 -18z"/>
<path d="M1914 6022 c-99 -34 -187 -118 -220 -209 -22 -62 -18 -160 10 -218
51 -108 156 -175 286 -183 251 -15 446 203 375 418 -25 75 -110 160 -188 189
-73 27 -190 28 -263 3z"/>
<path d="M5267 5890 c-16 -5 -44 -20 -63 -35 -119 -91 -77 -278 74 -330 58
-19 87 -19 146 1 139 48 175 205 70 310 -58 58 -144 79 -227 54z"/>
<path d="M6240 5890 c-138 -25 -201 -159 -130 -275 24 -39 88 -79 151 -96 119
-31 249 75 235 190 -16 124 -130 204 -256 181z"/>
<path d="M3843 5754 c-89 -44 -88 -166 2 -208 64 -31 140 -11 175 46 25 42 25
74 0 115 -36 59 -111 79 -177 47z"/>
<path d="M5747 5456 c-92 -34 -141 -127 -116 -219 14 -53 87 -130 138 -145 91
-28 180 -5 238 61 75 86 46 219 -62 282 -55 33 -142 42 -198 21z"/>
<path d="M2755 5269 c-81 -12 -213 -77 -276 -136 -113 -105 -169 -231 -169
-384 0 -341 340 -577 688 -476 104 30 179 77 256 157 150 159 185 376 92 565
-103 208 -327 312 -591 274z m247 -97 c9 -8 15 -56 18 -135 l5 -122 122 -5
c157 -6 156 -6 156 -135 0 -134 -2 -135 -153 -135 -77 0 -120 -4 -128 -12 -7
-7 -12 -45 -12 -99 0 -157 -19 -175 -173 -172 -133 3 -132 2 -132 149 0 91 -3
117 -15 125 -9 6 -54 7 -118 3 -142 -8 -152 -2 -152 104 1 88 13 151 32 163 7
5 62 9 121 9 60 0 117 5 128 10 17 10 19 22 19 113 0 122 8 138 71 146 77 10
198 6 211 -7z"/>
<path d="M2790 5153 c-32 -11 -40 -37 -40 -130 0 -86 -2 -96 -25 -118 -23 -24
-30 -25 -139 -25 -104 0 -116 -2 -126 -19 -14 -28 -13 -174 2 -189 8 -8 53
-12 135 -12 l123 0 10 -26 c6 -14 9 -71 9 -126 -1 -81 1 -104 14 -113 25 -18
165 -19 193 0 23 15 24 21 24 124 0 146 0 146 162 147 108 0 121 2 131 20 14
24 14 171 0 185 -5 5 -65 11 -132 12 -94 2 -124 6 -131 17 -6 8 -10 65 -10
127 0 101 -2 113 -19 123 -20 10 -154 13 -181 3z"/>
<path d="M4740 5274 c-152 -32 -282 -134 -347 -270 -37 -77 -38 -82 -38 -195
l0 -116 42 -85 c179 -361 698 -398 914 -66 53 83 73 166 67 279 -5 81 -10 100
-47 174 -70 142 -206 246 -366 280 -85 18 -140 18 -225 -1z m297 -160 c74 -36
147 -109 181 -182 38 -81 38 -192 0 -274 -33 -71 -100 -138 -176 -175 -52 -26
-67 -28 -167 -28 -99 0 -116 3 -168 27 -227 107 -293 379 -133 555 104 116
314 151 463 77z"/>
<path d="M4743 5116 c-92 -30 -167 -98 -209 -190 -23 -51 -26 -68 -22 -131 6
-89 33 -148 96 -212 26 -25 76 -60 112 -77 57 -27 75 -30 155 -30 76 0 99 4
145 26 122 57 190 151 198 272 5 96 -23 171 -91 243 -72 77 -139 106 -252 110
-57 2 -105 -2 -132 -11z"/>
<path d="M2890 3874 c-119 -4 -320 -24 -320 -33 0 -3 7 -15 15 -25 17 -22 20
-85 6 -134 -5 -17 -7 -32 -5 -32 3 0 36 16 74 36 129 66 290 86 876 105 255 9
445 9 745 0 589 -16 775 -36 878 -91 30 -17 55 -29 57 -27 1 1 -2 25 -8 54 -8
41 -7 57 5 82 18 36 22 34 -103 53 -68 10 -1946 20 -2220 12z"/>
<path d="M2421 3807 c-112 -56 -299 -257 -367 -391 -64 -128 -42 -191 65 -191
134 1 282 125 390 327 44 82 75 188 65 221 -18 61 -76 74 -153 34z"/>
<path d="M5239 3808 c-30 -56 17 -192 104 -306 54 -70 169 -180 218 -210 45
-27 143 -62 175 -62 38 0 72 21 85 52 26 64 -33 171 -176 314 -147 148 -277
234 -354 234 -31 0 -43 -5 -52 -22z"/>
<path d="M1950 3278 c-14 -18 -31 -46 -38 -62 -7 -17 -28 -47 -46 -66 -19 -19
-37 -46 -41 -60 -9 -30 -65 -110 -77 -110 -4 0 -14 -16 -22 -35 -8 -19 -20
-35 -25 -35 -6 0 -11 -6 -11 -14 0 -23 -151 -244 -225 -331 -126 -146 -239
-252 -306 -286 -53 -26 -60 -33 -45 -41 10 -6 70 -11 134 -11 l117 -2 116 56
c111 54 129 65 210 137 20 17 41 32 46 32 5 0 16 15 25 33 8 17 34 56 57 84
22 29 64 96 92 150 108 205 239 466 239 475 0 5 -8 7 -17 4 -56 -17 -143 38
-143 90 0 32 -10 30 -40 -8z"/>
<path d="M5822 3242 c-32 -33 -35 -34 -97 -30 -62 4 -65 3 -59 -17 12 -36 150
-316 223 -450 39 -71 75 -139 80 -150 5 -11 65 -75 134 -142 107 -104 138
-128 218 -169 130 -66 152 -71 266 -61 53 4 102 11 110 15 8 5 -14 25 -68 61
-87 58 -227 193 -274 262 -16 24 -40 56 -53 70 -13 15 -38 47 -55 72 -18 26
-51 73 -75 106 -23 33 -46 71 -51 84 -5 13 -20 36 -33 53 -13 16 -43 58 -66
94 -23 36 -55 83 -71 105 -16 22 -35 54 -44 70 -8 17 -23 37 -33 45 -18 14
-22 13 -52 -18z"/>
</g>
</svg>
