<?xml version="1.0" standalone="no"?>
<!DOCTYPE svg PUBLIC "-//W3C//DTD SVG 20010904//EN"
 "http://www.w3.org/TR/2001/REC-SVG-20010904/DTD/svg10.dtd">
<svg version="1.0" xmlns="http://www.w3.org/2000/svg"
 width="781.000000pt" height="828.000000pt" viewBox="0 0 781.000000 828.000000"
 preserveAspectRatio="xMidYMid meet">

<g transform="translate(0.000000,828.000000) scale(0.100000,-0.100000)"
fill="#000000" stroke="none">
<path d="M2073 7323 c103 -2 271 -2 375 0 103 1 18 2 -188 2 -206 0 -291 -1
-187 -2z"/>
<path d="M5143 7313 c-10 -10 -12 -13 -4 -8 8 6 165 12 390 15 l376 5 -371 3
c-342 2 -373 1 -391 -15z"/>
<path d="M1854 7298 l-19 -23 23 19 c12 11 22 21 22 23 0 8 -8 2 -26 -19z"/>
<path d="M2656 7298 c10 -14 21 -24 23 -22 3 3 -6 15 -18 27 l-24 22 19 -27z"/>
<path d="M5911 7317 c2 -1 13 -9 24 -17 19 -14 19 -14 6 3 -7 9 -18 17 -24 17
-6 0 -8 -1 -6 -3z"/>
<path d="M1879 7283 c-12 -16 -12 -17 2 -5 13 9 100 12 385 10 l369 -3 6 -75
5 -75 2 71 c1 43 -3 75 -10 82 -9 9 -107 12 -379 12 -337 0 -368 -1 -380 -17z"/>
<path d="M5113 7220 c0 -36 2 -50 4 -32 2 17 2 47 0 65 -2 17 -4 3 -4 -33z"/>
<path d="M5951 7264 c0 -11 3 -14 6 -6 3 7 2 16 -1 19 -3 4 -6 -2 -5 -13z"/>
<path d="M5142 7245 c0 -16 2 -22 5 -12 2 9 2 23 0 30 -3 6 -5 -1 -5 -18z"/>
<path d="M1862 7235 c0 -16 2 -22 5 -12 2 9 2 23 0 30 -3 6 -5 -1 -5 -18z"/>
<path d="M1832 7210 c0 -19 2 -27 5 -17 2 9 2 25 0 35 -3 9 -5 1 -5 -18z"/>
<path d="M4793 7233 c26 -2 68 -2 95 0 26 2 4 3 -48 3 -52 0 -74 -1 -47 -3z"/>
<path d="M2842 7214 c-12 -8 -22 -19 -22 -25 0 -5 9 0 20 11 18 18 33 20 133
20 141 0 150 -5 158 -92 l6 -63 1 58 c2 49 -2 62 -23 82 -23 24 -30 25 -137
25 -87 0 -119 -4 -136 -16z"/>
<path d="M4695 7210 c-26 -28 -15 -31 12 -3 12 13 19 23 14 23 -4 0 -16 -9
-26 -20z"/>
<path d="M4955 7218 c11 -6 23 -16 27 -22 5 -8 8 -7 8 1 0 7 -9 17 -19 23 -27
14 -41 12 -16 -2z"/>
<path d="M4733 7202 c-6 -4 26 -6 70 -4 126 4 142 9 37 10 -52 1 -100 -2 -107
-6z"/>
<path d="M2857 7182 c-14 -15 -17 -37 -15 -113 l2 -94 5 100 c6 94 7 100 31
112 16 8 19 13 9 13 -9 0 -23 -8 -32 -18z"/>
<path d="M3061 7197 c2 -1 13 -9 24 -17 19 -14 19 -14 6 3 -7 9 -18 17 -24 17
-6 0 -8 -1 -6 -3z"/>
<path d="M4946 7190 c7 -8 14 -24 17 -35 4 -19 5 -19 6 1 0 12 -7 28 -16 35
-16 12 -17 12 -7 -1z"/>
<path d="M2672 7161 c-1 -19 -10 -44 -19 -55 -17 -21 -17 -21 6 0 17 16 22 29
18 55 l-4 34 -1 -34z"/>
<path d="M4993 7135 c0 -27 2 -38 4 -22 2 15 2 37 0 50 -2 12 -4 0 -4 -28z"/>
<path d="M2813 7120 c0 -30 2 -43 4 -27 2 15 2 39 0 55 -2 15 -4 2 -4 -28z"/>
<path d="M3102 7140 c0 -14 2 -19 5 -12 2 6 2 18 0 25 -3 6 -5 1 -5 -13z"/>
<path d="M1860 7131 c0 -6 4 -13 10 -16 6 -3 7 1 4 9 -7 18 -14 21 -14 7z"/>
<path d="M1830 7123 c0 -5 10 -18 23 -29 l22 -19 -20 25 c-11 14 -21 27 -22
29 -2 2 -3 0 -3 -6z"/>
<path d="M5120 7123 c0 -6 8 -17 18 -24 16 -13 16 -13 2 6 -8 11 -16 22 -17
24 -2 2 -3 0 -3 -6z"/>
<path d="M2068 7103 c100 -2 264 -2 365 0 100 1 18 2 -183 2 -201 0 -283 -1
-182 -2z"/>
<path d="M5358 7103 c100 -2 264 -2 365 0 100 1 18 2 -183 2 -201 0 -283 -1
-182 -2z"/>
<path d="M4684 7000 c0 -58 1 -81 3 -52 2 28 2 76 0 105 -2 28 -3 5 -3 -53z"/>
<path d="M2068 7073 c100 -2 264 -2 365 0 100 1 18 2 -183 2 -201 0 -283 -1
-182 -2z"/>
<path d="M5363 7073 c104 -2 270 -2 370 0 100 1 16 2 -188 2 -203 0 -285 -1
-182 -2z"/>
<path d="M4713 6985 c0 -44 2 -61 4 -37 2 23 2 59 0 80 -2 20 -4 1 -4 -43z"/>
<path d="M3092 6954 c-1 -36 -7 -66 -15 -72 -7 -6 -58 -13 -113 -15 l-99 -3
101 -2 c126 -3 137 5 131 94 l-3 59 -2 -61z"/>
<path d="M2523 6933 c20 -2 54 -2 75 0 20 2 3 4 -38 4 -41 0 -58 -2 -37 -4z"/>
<path d="M5228 6933 c18 -2 45 -2 60 0 15 2 0 4 -33 4 -33 0 -45 -2 -27 -4z"/>
<path d="M5368 6933 c12 -2 30 -2 40 0 9 3 -1 5 -23 4 -22 0 -30 -2 -17 -4z"/>
<path d="M2268 6923 c18 -2 45 -2 60 0 15 2 0 4 -33 4 -33 0 -45 -2 -27 -4z"/>
<path d="M2651 6926 c2 -2 15 -9 29 -15 24 -11 24 -11 6 3 -16 13 -49 24 -35
12z"/>
<path d="M5130 6920 c-11 -8 -7 -9 15 -4 37 8 45 14 19 14 -10 0 -26 -5 -34
-10z"/>
<path d="M5463 6923 c15 -2 39 -2 55 0 15 2 2 4 -28 4 -30 0 -43 -2 -27 -4z"/>
<path d="M2158 6913 c12 -2 30 -2 40 0 9 3 -1 5 -23 4 -22 0 -30 -2 -17 -4z"/>
<path d="M5588 6913 c12 -2 32 -2 45 0 12 2 2 4 -23 4 -25 0 -35 -2 -22 -4z"/>
<path d="M2088 6903 c7 -3 16 -2 19 1 4 3 -2 6 -13 5 -11 0 -14 -3 -6 -6z"/>
<path d="M2308 6903 c18 -2 45 -2 60 0 15 2 0 4 -33 4 -33 0 -45 -2 -27 -4z"/>
<path d="M2488 6903 c7 -3 16 -2 19 1 4 3 -2 6 -13 5 -11 0 -14 -3 -6 -6z"/>
<path d="M2628 6903 c7 -3 16 -2 19 1 4 3 -2 6 -13 5 -11 0 -14 -3 -6 -6z"/>
<path d="M5178 6903 c7 -3 16 -2 19 1 4 3 -2 6 -13 5 -11 0 -14 -3 -6 -6z"/>
<path d="M5418 6903 c12 -2 30 -2 40 0 9 3 -1 5 -23 4 -22 0 -30 -2 -17 -4z"/>
<path d="M5688 6903 c6 -2 18 -2 25 0 6 3 1 5 -13 5 -14 0 -19 -2 -12 -5z"/>
<path d="M1935 6890 c-33 -6 -35 -7 -10 -8 17 0 53 3 80 8 47 7 48 7 10 7 -22
0 -58 -3 -80 -7z"/>
<path d="M2203 6893 c9 -2 23 -2 30 0 6 3 -1 5 -18 5 -16 0 -22 -2 -12 -5z"/>
<path d="M2840 6891 c0 -6 4 -13 10 -16 6 -3 7 1 4 9 -7 18 -14 21 -14 7z"/>
<path d="M4732 6884 c9 -9 21 -15 27 -13 6 2 -2 10 -17 17 -25 11 -25 11 -10
-4z"/>
<path d="M4946 6885 c-11 -8 -15 -15 -9 -15 6 0 16 7 23 15 16 19 11 19 -14 0z"/>
<path d="M5105 6889 c-4 -6 -5 -12 -2 -15 2 -3 7 2 10 11 7 17 1 20 -8 4z"/>
<path d="M5578 6893 c7 -3 16 -2 19 1 4 3 -2 6 -13 5 -11 0 -14 -3 -6 -6z"/>
<path d="M5773 6893 c15 -2 37 -2 50 0 12 2 0 4 -28 4 -27 0 -38 -2 -22 -4z"/>
<path d="M2108 6883 c12 -2 30 -2 40 0 9 3 -1 5 -23 4 -22 0 -30 -2 -17 -4z"/>
<path d="M2810 6882 c0 -6 12 -20 26 -31 24 -19 39 -21 133 -19 l106 2 -113 5
c-104 6 -115 8 -133 30 -10 13 -19 19 -19 13z"/>
<path d="M4690 6882 c0 -6 10 -18 22 -26 18 -13 47 -16 138 -14 l115 2 -123 5
c-107 5 -126 9 -138 25 -8 11 -14 15 -14 8z"/>
<path d="M4981 6867 c-13 -21 -12 -21 5 -5 10 10 16 20 13 22 -3 3 -11 -5 -18
-17z"/>
<path d="M5126 6873 c-6 -14 -5 -15 5 -6 7 7 10 15 7 18 -3 3 -9 -2 -12 -12z"/>
<path d="M5633 6883 c15 -2 39 -2 55 0 15 2 2 4 -28 4 -30 0 -43 -2 -27 -4z"/>
<path d="M5863 6883 c9 -2 23 -2 30 0 6 3 -1 5 -18 5 -16 0 -22 -2 -12 -5z"/>
<path d="M1833 6864 c-17 -9 -34 -23 -38 -32 -5 -12 0 -11 17 4 13 12 37 26
53 32 17 6 23 11 15 11 -8 0 -29 -7 -47 -15z"/>
<path d="M2048 6873 c7 -3 16 -2 19 1 4 3 -2 6 -13 5 -11 0 -14 -3 -6 -6z"/>
<path d="M5728 6873 c7 -3 16 -2 19 1 4 3 -2 6 -13 5 -11 0 -14 -3 -6 -6z"/>
<path d="M5918 6873 c7 -3 16 -2 19 1 4 3 -2 6 -13 5 -11 0 -14 -3 -6 -6z"/>
<path d="M1973 6863 c9 -2 23 -2 30 0 6 3 -1 5 -18 5 -16 0 -22 -2 -12 -5z"/>
<path d="M2712 6850 c0 -14 2 -19 5 -12 2 6 2 18 0 25 -3 6 -5 1 -5 -13z"/>
<path d="M5861 6855 c48 -7 93 -16 100 -20 10 -6 11 -5 3 4 -12 13 -111 31
-159 30 -16 -1 9 -7 56 -14z"/>
<path d="M5969 6859 c14 -5 30 -13 36 -17 6 -4 2 1 -8 11 -11 9 -27 17 -36 16
-10 0 -7 -4 8 -10z"/>
<path d="M1875 6850 c-13 -6 -5 -7 25 -3 25 3 47 7 49 9 9 8 -55 2 -74 -6z"/>
<path d="M3090 6850 c-9 -6 -10 -10 -3 -10 6 0 15 5 18 10 8 12 4 12 -15 0z"/>
<path d="M5092 6835 c0 -16 2 -22 5 -12 2 9 2 23 0 30 -3 6 -5 -1 -5 -18z"/>
<path d="M1830 6830 c-9 -6 -10 -10 -3 -10 6 0 15 5 18 10 8 12 4 12 -15 0z"/>
<path d="M2693 6800 c0 -25 2 -35 4 -22 2 12 2 32 0 45 -2 12 -4 2 -4 -23z"/>
<path d="M5114 6798 l1 -43 115 0 115 -1 -112 3 -112 4 -4 39 -4 40 1 -42z"/>
<path d="M5999 6785 c8 -24 17 -42 19 -40 6 5 -18 74 -27 80 -5 2 -1 -15 8
-40z"/>
<path d="M1805 6799 c-4 -6 -11 -23 -15 -37 l-8 -27 -2 25 c-1 19 -5 15 -16
-20 -7 -25 -13 -54 -13 -65 1 -11 6 0 12 25 10 45 11 45 18 15 5 -22 7 -24 8
-9 0 12 8 40 16 63 14 39 14 53 0 30z"/>
<path d="M2720 6791 c0 -11 4 -22 9 -25 4 -3 6 6 3 19 -5 30 -12 33 -12 6z"/>
<path d="M5081 6788 c-1 -9 -9 -22 -18 -27 -10 -6 -13 -11 -7 -11 17 0 37 27
31 42 -4 8 -6 7 -6 -4z"/>
<path d="M6031 6774 c0 -11 3 -14 6 -6 3 7 2 16 -1 19 -3 4 -6 -2 -5 -13z"/>
<path d="M3227 6773 c94 -2 252 -2 350 0 98 1 21 2 -172 2 -192 1 -273 -1
-178 -2z"/>
<path d="M4318 6773 c29 -2 74 -2 100 0 26 2 2 3 -53 3 -55 0 -76 -1 -47 -3z"/>
<path d="M4687 6763 c18 -2 50 -2 70 0 21 2 7 4 -32 4 -38 0 -55 -2 -38 -4z"/>
<path d="M2548 6753 c23 -2 61 -2 85 0 23 2 4 4 -43 4 -47 0 -66 -2 -42 -4z"/>
<path d="M2773 6753 c15 -2 39 -2 55 0 15 2 2 4 -28 4 -30 0 -43 -2 -27 -4z"/>
<path d="M3368 6753 c17 -2 47 -2 65 0 17 2 3 4 -33 4 -36 0 -50 -2 -32 -4z"/>
<path d="M3507 6753 c18 -2 50 -2 70 0 21 2 7 4 -32 4 -38 0 -55 -2 -38 -4z"/>
<path d="M3638 6753 c7 -3 16 -2 19 1 4 3 -2 6 -13 5 -11 0 -14 -3 -6 -6z"/>
<path d="M4033 6753 c9 -2 23 -2 30 0 6 3 -1 5 -18 5 -16 0 -22 -2 -12 -5z"/>
<path d="M4103 6753 c9 -2 23 -2 30 0 6 3 -1 5 -18 5 -16 0 -22 -2 -12 -5z"/>
<path d="M4208 6753 c34 -2 88 -2 120 0 31 2 3 3 -63 3 -66 0 -92 -1 -57 -3z"/>
<path d="M4958 6753 c18 -2 45 -2 60 0 15 2 0 4 -33 4 -33 0 -45 -2 -27 -4z"/>
<path d="M2397 6743 c18 -2 50 -2 70 0 21 2 7 4 -32 4 -38 0 -55 -2 -38 -4z"/>
<path d="M3098 6743 c34 -2 88 -2 120 0 31 2 3 3 -63 3 -66 0 -92 -1 -57 -3z"/>
<path d="M4468 6743 c7 -3 16 -2 19 1 4 3 -2 6 -13 5 -11 0 -14 -3 -6 -6z"/>
<path d="M4573 6743 c32 -2 81 -2 110 0 29 2 3 3 -58 3 -60 0 -84 -1 -52 -3z"/>
<path d="M4753 6743 c9 -2 23 -2 30 0 6 3 -1 5 -18 5 -16 0 -22 -2 -12 -5z"/>
<path d="M5398 6743 c18 -2 45 -2 60 0 15 2 0 4 -33 4 -33 0 -45 -2 -27 -4z"/>
<path d="M6042 6735 c0 -11 3 -29 8 -40 11 -25 11 1 0 35 -6 20 -8 21 -8 5z"/>
<path d="M2313 6733 c9 -2 23 -2 30 0 6 3 -1 5 -18 5 -16 0 -22 -2 -12 -5z"/>
<path d="M2660 6730 l-45 -7 60 -1 c33 -1 67 3 75 8 18 11 -17 11 -90 0z"/>
<path d="M2878 6733 c17 -2 47 -2 65 0 17 2 3 4 -33 4 -36 0 -50 -2 -32 -4z"/>
<path d="M4843 6733 c15 -2 39 -2 55 0 15 2 2 4 -28 4 -30 0 -43 -2 -27 -4z"/>
<path d="M4978 6733 c7 -3 16 -2 19 1 4 3 -2 6 -13 5 -11 0 -14 -3 -6 -6z"/>
<path d="M5518 6733 c7 -3 16 -2 19 1 4 3 -2 6 -13 5 -11 0 -14 -3 -6 -6z"/>
<path d="M2155 6720 c-19 -5 -6 -6 35 -3 36 3 67 7 69 9 8 7 -73 2 -104 -6z"/>
<path d="M2460 6720 l-85 -6 85 -1 c47 0 99 3 115 7 l30 8 -30 -1 c-16 0 -68
-4 -115 -7z"/>
<path d="M5068 6723 c23 -2 61 -2 85 0 23 2 4 4 -43 4 -47 0 -66 -2 -42 -4z"/>
<path d="M5593 6723 c9 -2 25 -2 35 0 9 3 1 5 -18 5 -19 0 -27 -2 -17 -5z"/>
<path d="M6022 6705 c0 -16 2 -22 5 -12 2 9 2 23 0 30 -3 6 -5 -1 -5 -18z"/>
<path d="M5258 6713 c28 -2 76 -2 105 0 28 2 5 3 -53 3 -58 0 -81 -1 -52 -3z"/>
<path d="M5663 6713 c9 -2 23 -2 30 0 6 3 -1 5 -18 5 -16 0 -22 -2 -12 -5z"/>
<path d="M2055 6700 c-14 -7 -8 -8 20 -3 22 3 42 7 44 9 9 8 -45 2 -64 -6z"/>
<path d="M2323 6703 c9 -2 25 -2 35 0 9 3 1 5 -18 5 -19 0 -27 -2 -17 -5z"/>
<path d="M5448 6703 c12 -2 32 -2 45 0 12 2 2 4 -23 4 -25 0 -35 -2 -22 -4z"/>
<path d="M5718 6703 c7 -3 16 -2 19 1 4 3 -2 6 -13 5 -11 0 -14 -3 -6 -6z"/>
<path d="M2248 6693 c6 -2 18 -2 25 0 6 3 1 5 -13 5 -14 0 -19 -2 -12 -5z"/>
<path d="M5543 6693 c9 -2 23 -2 30 0 6 3 -1 5 -18 5 -16 0 -22 -2 -12 -5z"/>
<path d="M5795 6684 c28 -7 55 -13 60 -13 17 2 -69 27 -90 27 -11 0 3 -6 30
-14z"/>
<path d="M1975 6680 c-25 -11 1 -11 35 0 20 6 21 8 5 8 -11 0 -29 -3 -40 -8z"/>
<path d="M2155 6683 c-96 -21 -193 -47 -205 -55 -11 -7 -10 -8 5 -4 101 26
188 47 225 54 25 6 34 10 20 10 -14 0 -34 -2 -45 -5z"/>
<path d="M5650 6675 c36 -8 72 -14 80 -13 27 1 -84 26 -115 26 -16 0 -1 -6 35
-13z"/>
<path d="M1772 6650 c0 -14 2 -19 5 -12 2 6 2 18 0 25 -3 6 -5 1 -5 -13z"/>
<path d="M1910 6660 c-21 -7 -21 -8 -5 -9 11 0 27 4 35 9 18 11 5 11 -30 0z"/>
<path d="M5880 6660 c8 -5 22 -9 30 -9 10 0 8 3 -5 9 -27 12 -43 12 -25 0z"/>
<path d="M6060 6649 c0 -13 5 -31 10 -39 7 -11 8 -5 4 20 -8 43 -14 51 -14 19z"/>
<path d="M3848 6634 c-27 -13 -48 -27 -48 -29 0 -3 23 6 51 21 44 22 56 24 78
15 24 -11 25 -10 7 4 -26 20 -32 19 -88 -11z"/>
<path d="M6032 6640 c0 -14 2 -19 5 -12 2 6 2 18 0 25 -3 6 -5 1 -5 -13z"/>
<path d="M1741 6628 c0 -15 -11 -34 -23 -42 -12 -9 -18 -16 -12 -16 20 0 46
38 41 62 -4 21 -4 21 -6 -4z"/>
<path d="M1850 6640 c-8 -5 -10 -10 -5 -10 6 0 17 5 25 10 8 5 11 10 5 10 -5
0 -17 -5 -25 -10z"/>
<path d="M5788 6643 c7 -3 16 -2 19 1 4 3 -2 6 -13 5 -11 0 -14 -3 -6 -6z"/>
<path d="M5940 6640 c8 -5 20 -10 25 -10 6 0 3 5 -5 10 -8 5 -19 10 -25 10 -5
0 -3 -5 5 -10z"/>
<path d="M5865 6620 c28 -10 57 -18 65 -18 8 0 -7 8 -35 18 -27 10 -57 18 -65
18 -8 0 8 -8 35 -18z"/>
<path d="M1790 6620 c-21 -7 -21 -8 -5 -9 11 0 27 4 35 9 18 11 5 11 -30 0z"/>
<path d="M1885 6610 c-13 -5 -14 -9 -5 -9 8 0 24 4 35 9 13 5 14 9 5 9 -8 0
-24 -4 -35 -9z"/>
<path d="M3830 6590 c-30 -16 -51 -29 -47 -30 4 0 27 10 50 22 23 11 53 24 67
29 20 6 21 7 5 8 -11 0 -45 -13 -75 -29z"/>
<path d="M6010 6610 c8 -5 20 -10 25 -10 6 0 3 5 -5 10 -8 5 -19 10 -25 10 -5
0 -3 -5 5 -10z"/>
<path d="M3950 6596 c0 -2 7 -7 16 -10 8 -3 12 -2 9 4 -6 10 -25 14 -25 6z"/>
<path d="M4020 6598 c0 -2 9 -11 20 -21 11 -9 20 -13 20 -7 0 5 -9 14 -20 20
-11 6 -20 9 -20 8z"/>
<path d="M3752 6578 c-7 -7 -12 -41 -12 -84 0 -56 4 -74 18 -85 14 -11 15 -11
5 1 -17 18 -17 152 -1 168 7 7 10 12 7 12 -3 0 -10 -5 -17 -12z"/>
<path d="M6080 6586 c0 -2 8 -10 18 -17 15 -13 16 -12 3 4 -13 16 -21 21 -21
13z"/>
<path d="M1750 6560 c-8 -5 -10 -10 -5 -10 6 0 17 5 25 10 8 5 11 10 5 10 -5
0 -17 -5 -25 -10z"/>
<path d="M4017 6549 c4 -13 8 -18 11 -10 2 7 -1 18 -6 23 -8 8 -9 4 -5 -13z"/>
<path d="M6160 6536 c25 -12 67 -37 93 -55 26 -17 47 -30 47 -27 0 8 -110 80
-143 94 -47 20 -45 12 3 -12z"/>
<path d="M1603 6509 c-59 -50 -75 -67 -47 -48 31 21 109 89 101 89 -3 0 -27
-18 -54 -41z"/>
<path d="M6090 6535 c14 -8 30 -14 35 -14 6 0 -1 6 -15 14 -14 8 -29 14 -35
14 -5 0 1 -6 15 -14z"/>
<path d="M1684 6524 c-18 -14 -18 -15 4 -4 12 6 22 13 22 15 0 8 -5 6 -26 -11z"/>
<path d="M6154 6508 c93 -63 147 -94 118 -69 -18 16 -57 40 -85 55 -29 15 -43
21 -33 14z"/>
<path d="M1548 6403 c-101 -105 -164 -195 -225 -325 -38 -80 -16 -53 28 35 67
132 105 186 212 295 56 56 98 102 95 102 -2 0 -52 -48 -110 -107z"/>
<path d="M6325 6430 c10 -11 20 -20 23 -20 3 0 -3 9 -13 20 -10 11 -20 20 -23
20 -3 0 3 -9 13 -20z"/>
<path d="M3781 6426 c2 -2 15 -9 29 -15 24 -11 24 -11 6 3 -16 13 -49 24 -35
12z"/>
<path d="M1465 6368 c-25 -28 -51 -61 -57 -72 -13 -26 -14 -26 56 57 67 79 68
89 1 15z"/>
<path d="M6381 6339 c42 -41 96 -100 119 -131 23 -32 45 -58 47 -58 6 0 5 2
-65 92 -29 36 -80 90 -115 119 -59 50 -58 49 14 -22z"/>
<path d="M3780 6396 c0 -3 14 -12 30 -21 17 -9 30 -13 30 -11 0 3 -13 12 -30
21 -16 9 -30 13 -30 11z"/>
<path d="M3841 6396 c2 -2 15 -9 29 -15 24 -11 24 -11 6 3 -16 13 -49 24 -35
12z"/>
<path d="M3930 6385 c-14 -8 -20 -14 -15 -14 6 0 21 6 35 14 14 8 21 14 15 14
-5 0 -21 -6 -35 -14z"/>
<path d="M6435 6332 c38 -40 71 -72 74 -72 7 0 -73 84 -109 114 -19 16 -4 -3
35 -42z"/>
<path d="M3990 6380 c-9 -6 -10 -10 -3 -10 6 0 15 5 18 10 8 12 4 12 -15 0z"/>
<path d="M3936 6354 c-23 -13 -34 -14 -54 -5 -13 7 -26 10 -29 8 -2 -2 10 -10
26 -16 24 -10 34 -10 60 3 17 9 31 19 31 21 0 7 -1 6 -34 -11z"/>
<path d="M5819 6345 c36 -8 80 -24 98 -35 19 -11 31 -15 27 -9 -11 19 -86 47
-139 53 -46 5 -45 4 14 -9z"/>
<path d="M3095 6330 c-22 -11 -46 -30 -54 -42 -11 -18 -6 -16 22 9 64 56 142
56 212 1 34 -27 37 -28 16 -5 -52 57 -127 72 -196 37z"/>
<path d="M4585 6334 c-16 -8 -21 -12 -10 -8 73 21 121 12 178 -34 29 -24 30
-24 12 -3 -24 29 -91 61 -125 60 -14 0 -38 -7 -55 -15z"/>
<path d="M5683 6340 c-32 -13 -28 -21 5 -10 15 5 36 11 47 13 16 4 15 5 -5 5
-14 0 -35 -3 -47 -8z"/>
<path d="M4520 6295 c-13 -14 -22 -27 -19 -29 2 -2 14 10 27 25 29 36 24 38
-8 4z"/>
<path d="M5610 6294 c-30 -26 -66 -82 -57 -90 2 -3 10 9 17 26 7 17 29 44 49
60 19 17 33 30 29 30 -4 0 -20 -12 -38 -26z"/>
<path d="M3091 6284 c-17 -14 -31 -30 -31 -34 0 -5 13 5 29 21 25 24 38 29 79
29 34 0 58 -6 78 -21 l29 -21 -28 26 c-40 37 -113 37 -156 0z"/>
<path d="M4565 6284 l-30 -26 32 21 c42 28 111 28 149 0 l29 -21 -28 26 c-39
37 -110 37 -152 0z"/>
<path d="M5792 6301 c59 -5 85 -13 110 -31 23 -17 29 -18 18 -5 -24 29 -75 45
-142 43 l-63 -1 77 -6z"/>
<path d="M5660 6275 c-19 -14 -31 -25 -27 -25 3 0 23 11 43 25 20 14 33 25 27
25 -5 0 -24 -11 -43 -25z"/>
<path d="M5960 6286 c0 -2 8 -10 18 -17 15 -13 16 -12 3 4 -13 16 -21 21 -21
13z"/>
<path d="M6014 6206 c12 -23 22 -39 24 -35 4 9 -24 66 -36 73 -5 3 1 -14 12
-38z"/>
<path d="M6557 6183 c46 -68 74 -103 58 -73 -19 34 -86 129 -95 135 -6 4 11
-24 37 -62z"/>
<path d="M4793 6200 c0 -25 2 -35 4 -22 2 12 2 32 0 45 -2 12 -4 2 -4 -23z"/>
<path d="M5956 6220 c6 -8 16 -24 22 -35 6 -11 12 -15 12 -8 0 7 -10 22 -22
35 -13 13 -18 17 -12 8z"/>
<path d="M3052 6200 c0 -19 2 -27 5 -17 2 9 2 25 0 35 -3 9 -5 1 -5 -18z"/>
<path d="M4750 6199 c0 -42 -15 -67 -53 -84 -24 -11 -26 -13 -7 -9 38 9 70 50
70 90 0 19 -2 34 -5 34 -3 0 -5 -14 -5 -31z"/>
<path d="M5600 6209 c-7 -11 -10 -23 -7 -25 2 -2 9 7 15 21 14 30 7 33 -8 4z"/>
<path d="M4481 6204 c0 -11 3 -14 6 -6 3 7 2 16 -1 19 -3 4 -6 -2 -5 -13z"/>
<path d="M1963 6203 c9 -2 23 -2 30 0 6 3 -1 5 -18 5 -16 0 -22 -2 -12 -5z"/>
<path d="M2180 6191 c41 -9 90 -25 108 -35 19 -10 36 -16 38 -13 13 13 -152
67 -201 66 -11 0 14 -8 55 -18z"/>
<path d="M1856 6184 c-44 -16 -65 -31 -26 -18 14 4 45 13 70 20 29 8 36 13 20
13 -14 0 -43 -7 -64 -15z"/>
<path d="M3263 6160 c-7 -19 -24 -36 -45 -45 -20 -9 -26 -14 -15 -15 22 0 77
52 77 74 0 23 -4 20 -17 -14z"/>
<path d="M4531 6179 c-1 -9 7 -23 17 -30 15 -12 16 -12 6 1 -6 8 -14 22 -17
30 -5 13 -6 12 -6 -1z"/>
<path d="M5541 6174 c0 -11 3 -14 6 -6 3 7 2 16 -1 19 -3 4 -6 -2 -5 -13z"/>
<path d="M1320 6150 c-6 -11 -8 -20 -6 -20 3 0 10 9 16 20 6 11 8 20 6 20 -3
0 -10 -9 -16 -20z"/>
<path d="M2048 6163 c12 -2 30 -2 40 0 9 3 -1 5 -23 4 -22 0 -30 -2 -17 -4z"/>
<path d="M1740 6131 c-25 -15 -52 -36 -60 -47 -12 -16 -10 -16 10 2 14 12 45
33 70 47 25 15 41 27 35 27 -5 0 -30 -13 -55 -29z"/>
<path d="M1930 6150 c-17 -6 -9 -7 25 -3 28 3 52 7 54 9 8 7 -54 2 -79 -6z"/>
<path d="M2130 6153 c57 -10 128 -35 178 -62 28 -16 50 -25 46 -20 -17 27
-177 90 -224 88 l-25 -2 25 -4z"/>
<path d="M3092 6128 c16 -16 34 -28 41 -28 6 0 3 6 -8 12 -11 6 -29 18 -40 27
-12 9 -8 4 7 -11z"/>
<path d="M3310 6153 c0 -5 -11 -22 -25 -37 -13 -14 -20 -26 -15 -26 12 0 53
60 46 67 -3 4 -6 2 -6 -4z"/>
<path d="M5582 6130 c0 -19 2 -27 5 -17 2 9 2 25 0 35 -3 9 -5 1 -5 -18z"/>
<path d="M3020 6143 c0 -17 58 -65 72 -60 9 4 8 6 -4 6 -9 1 -28 15 -42 32
-14 17 -26 27 -26 22z"/>
<path d="M4770 6129 c-6 -11 -26 -29 -43 -39 -18 -11 -27 -20 -21 -20 16 0 62
38 74 61 6 10 8 19 6 19 -3 0 -10 -9 -16 -21z"/>
<path d="M6043 6115 c0 -22 2 -30 4 -17 2 12 2 30 0 40 -3 9 -5 -1 -4 -23z"/>
<path d="M1850 6130 c-11 -8 -7 -9 15 -4 37 8 45 14 19 14 -10 0 -26 -5 -34
-10z"/>
<path d="M2340 6137 c0 -3 17 -17 37 -33 20 -15 33 -23 29 -16 -8 13 -66 56
-66 49z"/>
<path d="M4542 6098 c16 -16 34 -28 41 -28 6 0 3 6 -8 12 -11 6 -29 18 -40 27
-12 9 -8 4 7 -11z"/>
<path d="M4584 6116 c11 -9 24 -16 30 -16 12 0 7 5 -24 19 -24 11 -24 11 -6
-3z"/>
<path d="M1778 6099 c-21 -11 -38 -22 -38 -24 0 -5 79 32 89 41 12 11 -18 1
-51 -17z"/>
<path d="M5992 6095 c0 -16 2 -22 5 -12 2 9 2 23 0 30 -3 6 -5 -1 -5 -18z"/>
<path d="M5541 6094 c0 -11 3 -14 6 -6 3 7 2 16 -1 19 -3 4 -6 -2 -5 -13z"/>
<path d="M6585 6080 c9 -16 18 -30 21 -30 2 0 -2 14 -11 30 -9 17 -18 30 -21
30 -2 0 2 -13 11 -30z"/>
<path d="M1270 6070 c-6 -11 -8 -20 -6 -20 3 0 10 9 16 20 6 11 8 20 6 20 -3
0 -10 -9 -16 -20z"/>
<path d="M3225 6080 c-3 -6 1 -7 9 -4 18 7 21 14 7 14 -6 0 -13 -4 -16 -10z"/>
<path d="M2452 6040 c19 -25 45 -61 57 -80 11 -19 21 -30 21 -24 0 14 -83 129
-102 140 -7 4 4 -12 24 -36z"/>
<path d="M3119 6067 c5 -5 28 -7 52 -5 l44 3 -52 5 c-29 3 -48 1 -44 -3z"/>
<path d="M1610 6023 c-43 -48 -111 -174 -109 -203 0 -8 6 1 13 20 26 68 64
135 106 183 23 26 39 47 37 47 -3 0 -24 -21 -47 -47z"/>
<path d="M1704 6048 l-19 -23 23 19 c21 18 27 26 19 26 -2 0 -12 -10 -23 -22z"/>
<path d="M1963 6063 c9 -2 25 -2 35 0 9 3 1 5 -18 5 -19 0 -27 -2 -17 -5z"/>
<path d="M2093 6063 c9 -2 25 -2 35 0 9 3 1 5 -18 5 -19 0 -27 -2 -17 -5z"/>
<path d="M4623 6063 c15 -2 37 -2 50 0 12 2 0 4 -28 4 -27 0 -38 -2 -22 -4z"/>
<path d="M2400 6025 c19 -22 39 -44 44 -50 5 -5 4 -1 -2 10 -6 11 -25 33 -44
50 l-33 30 35 -40z"/>
<path d="M5600 6052 c0 -21 114 -111 126 -99 3 2 -9 10 -26 17 -16 7 -46 30
-65 51 -19 22 -35 35 -35 31z"/>
<path d="M5969 6033 c-8 -14 -34 -39 -58 -55 -25 -15 -41 -28 -37 -28 30 0
128 91 114 106 -3 2 -11 -8 -19 -23z"/>
<path d="M6704 5901 c39 -88 72 -158 74 -156 5 5 -129 304 -138 310 -4 3 25
-67 64 -154z"/>
<path d="M1852 6029 c-24 -12 -64 -42 -90 -66 l-47 -45 49 41 c26 22 71 52
100 65 28 14 47 25 41 26 -5 0 -29 -10 -53 -21z"/>
<path d="M2190 6040 c8 -5 20 -10 25 -10 6 0 3 5 -5 10 -8 5 -19 10 -25 10 -5
0 -3 -5 5 -10z"/>
<path d="M1973 6033 c9 -2 23 -2 30 0 6 3 -1 5 -18 5 -16 0 -22 -2 -12 -5z"/>
<path d="M2093 6033 c9 -2 23 -2 30 0 6 3 -1 5 -18 5 -16 0 -22 -2 -12 -5z"/>
<path d="M6016 6023 c-6 -14 -5 -15 5 -6 7 7 10 15 7 18 -3 3 -9 -2 -12 -12z"/>
<path d="M1659 6013 c-13 -16 -12 -17 4 -4 9 7 17 15 17 17 0 8 -8 3 -21 -13z"/>
<path d="M1873 6005 c-28 -15 -57 -33 -65 -43 -8 -10 0 -7 20 7 19 13 55 32
80 42 26 10 40 18 31 19 -8 0 -38 -11 -66 -25z"/>
<path d="M2250 6013 c13 -10 40 -31 60 -48 l35 -29 -27 30 c-15 16 -42 37 -60
47 -32 17 -32 17 -8 0z"/>
<path d="M1204 5849 c-47 -94 -84 -173 -82 -175 2 -2 43 75 91 171 48 96 85
175 82 175 -3 0 -43 -77 -91 -171z"/>
<path d="M2180 6010 c8 -5 20 -10 25 -10 6 0 3 5 -5 10 -8 5 -19 10 -25 10 -5
0 -3 -5 5 -10z"/>
<path d="M5576 6007 c7 -19 90 -87 107 -87 5 0 -8 12 -29 26 -21 14 -49 37
-62 52 -14 17 -20 20 -16 9z"/>
<path d="M6620 6014 c0 -6 7 -19 16 -30 14 -18 14 -18 3 6 -14 31 -19 36 -19
24z"/>
<path d="M1210 5960 c-11 -22 -18 -40 -15 -40 2 0 14 18 25 40 11 22 18 40 15
40 -2 0 -14 -18 -25 -40z"/>
<path d="M2220 5998 c3 -2 30 -26 60 -53 54 -49 54 -49 15 -6 -22 23 -49 47
-60 53 -11 6 -18 9 -15 6z"/>
<path d="M5976 5971 c-16 -16 -41 -35 -57 -42 -17 -6 -28 -14 -25 -16 8 -8 60
25 90 56 17 17 27 31 25 31 -3 0 -18 -13 -33 -29z"/>
<path d="M1629 5973 c-29 -35 -41 -53 -36 -53 2 0 17 16 31 35 28 36 31 49 5
18z"/>
<path d="M2472 5915 c12 -24 23 -43 26 -41 4 5 -36 86 -43 86 -3 0 5 -20 17
-45z"/>
<path d="M6651 5955 c0 -5 6 -21 14 -35 8 -14 14 -20 14 -15 0 6 -6 21 -14 35
-8 14 -14 21 -14 15z"/>
<path d="M1764 5929 c-19 -22 -19 -22 4 -8 12 8 22 17 22 21 0 12 -6 9 -26
-13z"/>
<path d="M5328 5943 c7 -3 16 -2 19 1 4 3 -2 6 -13 5 -11 0 -14 -3 -6 -6z"/>
<path d="M5768 5943 c17 -2 47 -2 65 0 17 2 3 4 -33 4 -36 0 -50 -2 -32 -4z"/>
<path d="M5273 5933 c9 -2 23 -2 30 0 6 3 -1 5 -18 5 -16 0 -22 -2 -12 -5z"/>
<path d="M5373 5933 c9 -2 23 -2 30 0 6 3 -1 5 -18 5 -16 0 -22 -2 -12 -5z"/>
<path d="M6253 5933 c15 -2 39 -2 55 0 15 2 2 4 -28 4 -30 0 -43 -2 -27 -4z"/>
<path d="M2363 5891 c12 -22 23 -38 25 -36 5 5 -26 63 -37 69 -5 4 0 -12 12
-33z"/>
<path d="M5710 5910 c8 -5 20 -10 25 -10 6 0 3 5 -5 10 -8 5 -19 10 -25 10 -5
0 -3 -5 5 -10z"/>
<path d="M1167 5875 c-24 -50 -20 -58 4 -12 11 22 19 41 17 43 -3 2 -12 -12
-21 -31z"/>
<path d="M5470 5908 c3 -2 28 -24 55 -48 48 -42 48 -42 15 -6 -19 21 -44 42
-55 48 -11 6 -18 9 -15 6z"/>
<path d="M5858 5903 c7 -3 16 -2 19 1 4 3 -2 6 -13 5 -11 0 -14 -3 -6 -6z"/>
<path d="M6135 5900 c-3 -6 1 -7 9 -4 18 7 21 14 7 14 -6 0 -13 -4 -16 -10z"/>
<path d="M1732 5888 c-16 -22 -43 -79 -40 -87 2 -3 15 17 29 46 27 55 29 62
11 41z"/>
<path d="M5149 5863 l-34 -38 38 34 c34 33 42 41 34 41 -2 0 -19 -17 -38 -37z"/>
<path d="M5298 5893 c6 -2 18 -2 25 0 6 3 1 5 -13 5 -14 0 -19 -2 -12 -5z"/>
<path d="M5358 5893 c6 -2 18 -2 25 0 6 3 1 5 -13 5 -14 0 -19 -2 -12 -5z"/>
<path d="M5778 5893 c12 -2 30 -2 40 0 9 3 -1 5 -23 4 -22 0 -30 -2 -17 -4z"/>
<path d="M2341 5870 c14 -31 19 -36 19 -24 0 6 -7 19 -16 30 -14 18 -14 18 -3
-6z"/>
<path d="M5258 5883 c7 -3 16 -2 19 1 4 3 -2 6 -13 5 -11 0 -14 -3 -6 -6z"/>
<path d="M5425 5876 c17 -7 46 -26 65 -42 19 -16 30 -23 26 -16 -13 21 -88 72
-105 72 -9 -1 -2 -7 14 -14z"/>
<path d="M6094 5868 l-19 -23 23 19 c21 18 27 26 19 26 -2 0 -12 -10 -23 -22z"/>
<path d="M6218 5883 c7 -3 16 -2 19 1 4 3 -2 6 -13 5 -11 0 -14 -3 -6 -6z"/>
<path d="M6328 5883 c6 -2 18 -2 25 0 6 3 1 5 -13 5 -14 0 -19 -2 -12 -5z"/>
<path d="M1680 5859 c-7 -11 -10 -23 -7 -25 2 -2 9 7 15 21 14 30 7 33 -8 4z"/>
<path d="M6450 5877 c0 -2 15 -16 33 -33 l32 -29 -29 33 c-28 30 -36 37 -36
29z"/>
<path d="M2552 5850 c0 -14 2 -19 5 -12 2 6 2 18 0 25 -3 6 -5 1 -5 -13z"/>
<path d="M6390 5866 c0 -2 14 -14 30 -26 17 -12 30 -19 30 -16 0 2 -13 14 -30
26 -16 12 -30 19 -30 16z"/>
<path d="M6690 5865 c0 -5 5 -17 10 -25 5 -8 10 -10 10 -5 0 6 -5 17 -10 25
-5 8 -10 11 -10 5z"/>
<path d="M5183 5838 c-22 -25 -43 -62 -43 -75 1 -4 8 6 17 22 8 17 25 40 36
53 11 12 18 22 15 22 -2 0 -14 -10 -25 -22z"/>
<path d="M6121 5825 c-17 -20 -31 -41 -31 -48 0 -7 6 -3 12 8 6 11 22 32 36
48 14 15 23 27 20 27 -3 0 -20 -16 -37 -35z"/>
<path d="M2513 5760 c0 -36 2 -50 4 -32 2 17 2 47 0 65 -2 17 -4 3 -4 -33z"/>
<path d="M5105 5809 c-4 -6 -5 -12 -2 -15 2 -3 7 2 10 11 7 17 1 20 -8 4z"/>
<path d="M1542 5790 c0 -14 2 -19 5 -12 2 6 2 18 0 25 -3 6 -5 1 -5 -13z"/>
<path d="M2403 5740 c0 -41 2 -58 4 -37 2 20 2 54 0 75 -2 20 -4 3 -4 -38z"/>
<path d="M2562 5780 c0 -19 2 -27 5 -17 2 9 2 25 0 35 -3 9 -5 1 -5 -18z"/>
<path d="M5576 5797 c3 -10 9 -15 12 -12 3 3 0 11 -7 18 -10 9 -11 8 -5 -6z"/>
<path d="M6521 5790 c14 -31 19 -36 19 -24 0 6 -7 19 -16 30 -14 18 -14 18 -3
-6z"/>
<path d="M1492 5780 c0 -14 2 -19 5 -12 2 6 2 18 0 25 -3 6 -5 1 -5 -13z"/>
<path d="M2373 5745 c0 -33 2 -45 4 -27 2 18 2 45 0 60 -2 15 -4 0 -4 -33z"/>
<path d="M3863 5793 c9 -2 23 -2 30 0 6 3 -1 5 -18 5 -16 0 -22 -2 -12 -5z"/>
<path d="M3923 5793 c9 -2 23 -2 30 0 6 3 -1 5 -18 5 -16 0 -22 -2 -12 -5z"/>
<path d="M5526 5787 c3 -10 9 -15 12 -12 3 3 0 11 -7 18 -10 9 -11 8 -5 -6z"/>
<path d="M1652 5770 c0 -14 2 -19 5 -12 2 6 2 18 0 25 -3 6 -5 1 -5 -13z"/>
<path d="M3801 5764 c-18 -14 -36 -36 -42 -48 -8 -17 -7 -16 10 4 11 14 32 35
48 47 15 13 25 23 21 23 -3 0 -20 -12 -37 -26z"/>
<path d="M6041 5774 c0 -11 3 -14 6 -6 3 7 2 16 -1 19 -3 4 -6 -2 -5 -13z"/>
<path d="M1116 5765 c-9 -26 -7 -32 5 -12 6 10 9 21 6 23 -2 3 -7 -2 -11 -11z"/>
<path d="M1682 5760 c0 -14 2 -19 5 -12 2 6 2 18 0 25 -3 6 -5 1 -5 -13z"/>
<path d="M3990 5776 c0 -3 9 -10 20 -16 11 -6 20 -8 20 -6 0 3 -9 10 -20 16
-11 6 -20 8 -20 6z"/>
<path d="M5091 5764 c0 -11 3 -14 6 -6 3 7 2 16 -1 19 -3 4 -6 -2 -5 -13z"/>
<path d="M3871 5766 c2 -2 26 -6 53 -9 30 -3 43 -1 35 4 -13 8 -97 13 -88 5z"/>
<path d="M5591 5754 c0 -11 3 -14 6 -6 3 7 2 16 -1 19 -3 4 -6 -2 -5 -13z"/>
<path d="M3835 5750 c-3 -6 1 -7 9 -4 18 7 21 14 7 14 -6 0 -13 -4 -16 -10z"/>
<path d="M5541 5744 c0 -11 3 -14 6 -6 3 7 2 16 -1 19 -3 4 -6 -2 -5 -13z"/>
<path d="M6082 5740 c0 -14 2 -19 5 -12 2 6 2 18 0 25 -3 6 -5 1 -5 -13z"/>
<path d="M1533 5710 c0 -25 2 -35 4 -22 2 12 2 32 0 45 -2 12 -4 2 -4 -23z"/>
<path d="M3995 5730 c10 -11 20 -20 23 -20 3 0 -3 9 -13 20 -10 11 -20 20 -23
20 -3 0 3 -9 13 -20z"/>
<path d="M6033 5710 c0 -25 2 -35 4 -22 2 12 2 32 0 45 -2 12 -4 2 -4 -23z"/>
<path d="M6542 5730 c0 -14 2 -19 5 -12 2 6 2 18 0 25 -3 6 -5 1 -5 -13z"/>
<path d="M6744 5735 c27 -74 60 -154 64 -151 4 5 -56 158 -65 166 -3 3 -3 -4
1 -15z"/>
<path d="M1642 5710 c0 -19 2 -27 5 -17 2 9 2 25 0 35 -3 9 -5 1 -5 -18z"/>
<path d="M2562 5710 c0 -19 2 -27 5 -17 2 9 2 25 0 35 -3 9 -5 1 -5 -18z"/>
<path d="M4046 5717 c3 -10 9 -15 12 -12 3 3 0 11 -7 18 -10 9 -11 8 -5 -6z"/>
<path d="M5132 5710 c0 -14 2 -19 5 -12 2 6 2 18 0 25 -3 6 -5 1 -5 -13z"/>
<path d="M6780 5725 c0 -5 5 -17 10 -25 5 -8 10 -10 10 -5 0 6 -5 17 -10 25
-5 8 -10 11 -10 5z"/>
<path d="M5552 5700 c0 -14 2 -19 5 -12 2 6 2 18 0 25 -3 6 -5 1 -5 -13z"/>
<path d="M6492 5690 c0 -19 2 -27 5 -17 2 9 2 25 0 35 -3 9 -5 1 -5 -18z"/>
<path d="M3785 5699 c-4 -6 -5 -12 -2 -15 2 -3 7 2 10 11 7 17 1 20 -8 4z"/>
<path d="M1682 5665 c0 -16 2 -22 5 -12 2 9 2 23 0 30 -3 6 -5 -1 -5 -18z"/>
<path d="M3743 5655 c0 -22 2 -30 4 -17 2 12 2 30 0 40 -3 9 -5 -1 -4 -23z"/>
<path d="M4061 5674 c0 -11 3 -14 6 -6 3 7 2 16 -1 19 -3 4 -6 -2 -5 -13z"/>
<path d="M1492 5655 c0 -16 2 -22 5 -12 2 9 2 23 0 30 -3 6 -5 -1 -5 -18z"/>
<path d="M2361 5664 c0 -11 3 -14 6 -6 3 7 2 16 -1 19 -3 4 -6 -2 -5 -13z"/>
<path d="M2502 5660 c0 -14 2 -19 5 -12 2 6 2 18 0 25 -3 6 -5 1 -5 -13z"/>
<path d="M2551 5654 c0 -11 3 -14 6 -6 3 7 2 16 -1 19 -3 4 -6 -2 -5 -13z"/>
<path d="M1651 5644 c0 -11 3 -14 6 -6 3 7 2 16 -1 19 -3 4 -6 -2 -5 -13z"/>
<path d="M5583 5623 c-10 -34 -10 -36 3 -19 12 17 20 56 11 56 -1 0 -7 -17
-14 -37z"/>
<path d="M6542 5640 c0 -14 2 -19 5 -12 2 6 2 18 0 25 -3 6 -5 1 -5 -13z"/>
<path d="M6475 5631 c-3 -12 -18 -36 -33 -54 -23 -28 -23 -29 -3 -12 25 22 55
74 48 82 -3 2 -8 -5 -12 -16z"/>
<path d="M1541 5624 c0 -11 3 -14 6 -6 3 7 2 16 -1 19 -3 4 -6 -2 -5 -13z"/>
<path d="M2331 5594 c-30 -56 -89 -109 -155 -140 -28 -13 -45 -24 -38 -24 23
0 92 40 133 77 38 34 96 119 87 128 -2 2 -14 -16 -27 -41z"/>
<path d="M4061 5624 c0 -11 3 -14 6 -6 3 7 2 16 -1 19 -3 4 -6 -2 -5 -13z"/>
<path d="M5150 5633 c0 -6 8 -17 18 -24 16 -13 16 -13 2 6 -8 11 -16 22 -17
24 -2 2 -3 0 -3 -6z"/>
<path d="M2541 5623 c-1 -6 -4 -20 -7 -30 -5 -17 -5 -17 6 0 6 10 9 23 6 30
-3 9 -5 9 -5 0z"/>
<path d="M5526 5613 c-6 -14 -5 -15 5 -6 7 7 10 15 7 18 -3 3 -9 -2 -12 -12z"/>
<path d="M6050 5621 c0 -6 4 -13 10 -16 6 -3 7 1 4 9 -7 18 -14 21 -14 7z"/>
<path d="M1037 5585 c-24 -50 -20 -58 4 -12 11 22 19 41 17 43 -3 2 -12 -12
-21 -31z"/>
<path d="M1661 5609 c-1 -8 6 -24 15 -35 15 -19 15 -19 6 1 -5 11 -12 27 -15
35 -5 13 -6 13 -6 -1z"/>
<path d="M3780 5615 c1 -12 30 -48 50 -60 14 -9 14 -8 0 5 -9 8 -23 26 -33 40
-9 13 -17 20 -17 15z"/>
<path d="M5110 5614 c0 -6 15 -26 33 -45 17 -20 25 -26 16 -15 -9 12 -23 32
-32 46 -10 13 -17 20 -17 14z"/>
<path d="M1501 5600 c0 -8 4 -22 9 -30 12 -18 12 -2 0 25 -6 13 -9 15 -9 5z"/>
<path d="M3750 5601 c0 -17 74 -91 91 -91 8 0 -1 9 -19 20 -18 11 -41 34 -52
52 -11 18 -20 27 -20 19z"/>
<path d="M6516 5581 c-9 -16 -29 -40 -46 -55 -18 -14 -28 -26 -23 -26 12 0 68
59 82 88 7 12 9 22 7 22 -3 0 -12 -13 -20 -29z"/>
<path d="M1076 5585 c-9 -26 -7 -32 5 -12 6 10 9 21 6 23 -2 3 -7 -2 -11 -11z"/>
<path d="M4041 5577 c-13 -21 -12 -21 5 -5 10 10 16 20 13 22 -3 3 -11 -5 -18
-17z"/>
<path d="M6124 5591 c7 -11 46 -35 46 -28 0 3 -12 12 -26 22 -15 9 -23 12 -20
6z"/>
<path d="M3994 5568 l-19 -23 23 19 c21 18 27 26 19 26 -2 0 -12 -10 -23 -22z"/>
<path d="M5499 5573 c-13 -16 -12 -17 4 -4 16 13 21 21 13 21 -2 0 -10 -8 -17
-17z"/>
<path d="M6105 5551 c39 -42 92 -77 102 -68 2 3 -6 8 -18 12 -12 4 -45 28 -73
53 l-51 46 40 -43z"/>
<path d="M1710 5574 c0 -13 98 -107 125 -120 30 -14 30 -14 5 3 -14 9 -49 41
-77 70 -29 29 -53 50 -53 47z"/>
<path d="M5523 5540 c-23 -22 -39 -40 -35 -40 5 0 26 18 47 40 50 51 43 51
-12 0z"/>
<path d="M1560 5564 c0 -6 7 -19 16 -30 14 -18 14 -18 3 6 -14 31 -19 36 -19
24z"/>
<path d="M5210 5566 c0 -2 8 -10 18 -17 15 -13 16 -12 3 4 -13 16 -21 21 -21
13z"/>
<path d="M6812 5565 c0 -5 6 -26 13 -45 7 -19 14 -28 14 -20 0 8 -6 29 -14 45
-7 17 -13 26 -13 20z"/>
<path d="M6846 5550 c4 -14 13 -38 20 -55 11 -24 13 -25 8 -5 -4 14 -13 39
-20 55 -11 24 -13 25 -8 5z"/>
<path d="M1520 5547 c0 -15 39 -84 57 -97 17 -14 17 -14 2 5 -9 11 -26 38 -37
60 -12 22 -21 36 -22 32z"/>
<path d="M1698 5534 c24 -46 145 -134 183 -134 7 0 -15 14 -49 31 -36 17 -79
50 -103 77 -23 26 -37 38 -31 26z"/>
<path d="M2300 5505 c-25 -25 -72 -59 -104 -75 -33 -17 -53 -30 -45 -30 31 0
135 73 183 128 33 38 12 24 -34 -23z"/>
<path d="M3985 5529 c-18 -11 -50 -20 -80 -21 l-50 -1 44 -4 c46 -4 92 9 112
33 15 18 11 17 -26 -7z"/>
<path d="M3888 5533 c12 -2 30 -2 40 0 9 3 -1 5 -23 4 -22 0 -30 -2 -17 -4z"/>
<path d="M6355 5530 c-13 -6 -15 -9 -5 -9 8 0 22 4 30 9 18 12 2 12 -25 0z"/>
<path d="M1002 5505 c-17 -37 -14 -45 4 -12 9 16 14 31 11 33 -2 2 -9 -7 -15
-21z"/>
<path d="M1037 5495 c-24 -50 -20 -58 4 -12 11 22 19 41 17 43 -3 2 -12 -12
-21 -31z"/>
<path d="M5202 5514 c10 -10 20 -16 22 -13 3 3 -5 11 -17 18 -21 13 -21 12 -5
-5z"/>
<path d="M2375 5446 c-64 -66 -61 -68 8 -6 25 22 74 82 65 79 -2 -1 -34 -33
-73 -73z"/>
<path d="M5328 5513 c12 -2 32 -2 45 0 12 2 2 4 -23 4 -25 0 -35 -2 -22 -4z"/>
<path d="M6283 5513 c9 -2 25 -2 35 0 9 3 1 5 -18 5 -19 0 -27 -2 -17 -5z"/>
<path d="M1608 5485 c11 -16 37 -46 58 -65 31 -28 29 -24 -10 20 -66 74 -73
80 -48 45z"/>
<path d="M5704 5485 c-47 -25 -114 -94 -114 -119 0 -6 8 3 19 19 31 50 77 87
133 106 29 10 44 18 32 19 -11 0 -42 -11 -70 -25z"/>
<path d="M5865 5501 c22 -4 51 -10 65 -14 20 -5 19 -4 -5 8 -16 8 -46 14 -65
13 l-35 -1 40 -6z"/>
<path d="M6385 5483 c-27 -10 -62 -13 -105 -10 -39 3 -55 2 -40 -3 55 -17 170
-5 185 20 4 6 5 9 3 9 -2 -1 -21 -8 -43 -16z"/>
<path d="M5317 5473 c18 -2 50 -2 70 0 21 2 7 4 -32 4 -38 0 -55 -2 -38 -4z"/>
<path d="M5965 5474 c6 -5 28 -25 50 -44 l40 -35 -30 33 c-17 19 -39 38 -50
44 -11 6 -15 7 -10 2z"/>
<path d="M2420 5423 c-27 -28 -35 -40 -19 -30 21 14 76 77 67 77 -2 0 -23 -21
-48 -47z"/>
<path d="M5746 5456 c-22 -8 -53 -29 -70 -47 l-31 -33 37 32 c84 70 200 68
296 -4 20 -15 31 -20 23 -10 -49 60 -176 91 -255 62z"/>
<path d="M976 5445 c-9 -26 -7 -32 5 -12 6 10 9 21 6 23 -2 3 -7 -2 -11 -11z"/>
<path d="M6881 5455 c1 -19 18 -51 18 -35 0 8 -4 22 -9 30 -5 8 -9 11 -9 5z"/>
<path d="M967 5333 c-65 -153 -138 -345 -134 -349 2 -2 23 47 47 109 24 61 65
163 92 226 26 63 46 116 44 118 -2 2 -24 -45 -49 -104z"/>
<path d="M1885 5430 c11 -5 27 -9 35 -9 9 0 8 4 -5 9 -11 5 -27 9 -35 9 -9 0
-8 -4 5 -9z"/>
<path d="M1590 5427 c0 -2 15 -16 33 -33 l32 -29 -29 33 c-28 30 -36 37 -36
29z"/>
<path d="M2015 5420 l-80 -6 75 -1 c41 -1 84 2 95 7 11 5 13 8 5 7 -8 0 -51
-4 -95 -7z"/>
<path d="M6860 5424 c0 -6 11 -40 25 -75 13 -35 24 -59 25 -53 0 6 -11 40 -25
75 -13 35 -24 59 -25 53z"/>
<path d="M2108 5393 c7 -3 16 -2 19 1 4 3 -2 6 -13 5 -11 0 -14 -3 -6 -6z"/>
<path d="M946 5375 c-9 -26 -7 -32 5 -12 6 10 9 21 6 23 -2 3 -7 -2 -11 -11z"/>
<path d="M1715 5379 c19 -29 174 -84 216 -76 21 4 20 4 -6 6 -43 2 -121 27
-172 55 -24 14 -41 21 -38 15z"/>
<path d="M1948 5383 c6 -2 18 -2 25 0 6 3 1 5 -13 5 -14 0 -19 -2 -12 -5z"/>
<path d="M2048 5383 c6 -2 18 -2 25 0 6 3 1 5 -13 5 -14 0 -19 -2 -12 -5z"/>
<path d="M6061 5370 c14 -31 19 -36 19 -24 0 6 -7 19 -16 30 -14 18 -14 18 -3
-6z"/>
<path d="M2243 5354 c-29 -14 -81 -32 -115 -40 -54 -12 -57 -13 -17 -9 51 5
144 37 175 60 26 20 18 18 -43 -11z"/>
<path d="M1675 5351 c21 -24 85 -61 107 -61 7 0 -7 10 -32 21 -25 11 -56 30
-70 42 l-25 22 20 -24z"/>
<path d="M5636 5355 c-3 -9 -6 -22 -5 -28 0 -7 5 -1 10 12 5 13 8 26 5 28 -2
2 -6 -3 -10 -12z"/>
<path d="M6021 5350 c14 -31 19 -36 19 -24 0 6 -7 19 -16 30 -14 18 -14 18 -3
-6z"/>
<path d="M6912 5358 c3 -7 13 -37 23 -66 9 -29 19 -52 21 -49 5 5 -36 127 -43
127 -3 0 -3 -6 -1 -12z"/>
<path d="M2250 5308 c-25 -12 -65 -27 -90 -34 -44 -14 -44 -14 -6 -8 39 5 146
48 146 58 0 7 4 9 -50 -16z"/>
<path d="M2755 5324 c-11 -3 -37 -10 -59 -15 -61 -16 -37 -19 29 -3 33 7 96
14 140 14 44 0 107 -7 140 -14 68 -16 86 -13 28 4 -40 13 -244 22 -278 14z"/>
<path d="M4712 5316 c-29 -7 -56 -17 -60 -21 -4 -5 0 -6 9 -2 77 27 260 34
349 12 l25 -6 -25 12 c-38 18 -235 21 -298 5z"/>
<path d="M6081 5314 c0 -11 3 -14 6 -6 3 7 2 16 -1 19 -3 4 -6 -2 -5 -13z"/>
<path d="M916 5305 c-9 -26 -7 -32 5 -12 6 10 9 21 6 23 -2 3 -7 -2 -11 -11z"/>
<path d="M5572 5290 c0 -19 2 -27 5 -17 2 9 2 25 0 35 -3 9 -5 1 -5 -18z"/>
<path d="M6041 5294 c0 -11 3 -14 6 -6 3 7 2 16 -1 19 -3 4 -6 -2 -5 -13z"/>
<path d="M1993 5293 c9 -2 23 -2 30 0 6 3 -1 5 -18 5 -16 0 -22 -2 -12 -5z"/>
<path d="M5050 5290 c8 -5 20 -10 25 -10 6 0 3 5 -5 10 -8 5 -19 10 -25 10 -5
0 -3 -5 5 -10z"/>
<path d="M5622 5280 c0 -14 2 -19 5 -12 2 6 2 18 0 25 -3 6 -5 1 -5 -13z"/>
<path d="M1806 5280 c5 -5 25 -12 44 -15 36 -5 29 -1 -25 16 -20 6 -26 6 -19
-1z"/>
<path d="M2588 5264 c-27 -13 -48 -27 -48 -29 0 -5 99 42 109 51 13 11 -20 0
-61 -22z"/>
<path d="M3090 5280 c8 -5 20 -10 25 -10 6 0 3 5 -5 10 -8 5 -19 10 -25 10 -5
0 -3 -5 5 -10z"/>
<path d="M4770 5281 c-19 -3 19 -6 85 -6 78 0 106 2 80 7 -47 8 -116 8 -165
-1z"/>
<path d="M6093 5255 c0 -22 2 -30 4 -17 2 12 2 30 0 40 -3 9 -5 -1 -4 -23z"/>
<path d="M2837 5273 c18 -2 50 -2 70 0 21 2 7 4 -32 4 -38 0 -55 -2 -38 -4z"/>
<path d="M4585 5270 c-3 -6 1 -7 9 -4 18 7 21 14 7 14 -6 0 -13 -4 -16 -10z"/>
<path d="M5091 5276 c10 -9 69 -36 69 -32 0 6 -55 36 -66 36 -4 0 -5 -2 -3 -4z"/>
<path d="M871 5194 c-17 -43 -29 -79 -27 -81 2 -2 17 31 35 73 17 43 29 79 27
81 -2 2 -17 -31 -35 -73z"/>
<path d="M2688 5254 c-27 -8 -48 -17 -48 -20 0 -4 8 -3 18 1 9 4 44 13 77 20
37 8 49 13 30 14 -16 0 -51 -7 -77 -15z"/>
<path d="M2958 5263 c6 -2 18 -2 25 0 6 3 1 5 -13 5 -14 0 -19 -2 -12 -5z"/>
<path d="M3130 5266 c0 -3 14 -12 30 -21 17 -9 30 -13 30 -11 0 3 -13 12 -30
21 -16 9 -30 13 -30 11z"/>
<path d="M4656 5250 c-27 -11 -54 -25 -60 -31 -8 -8 -4 -8 13 1 13 7 47 20 75
30 28 10 44 19 36 19 -8 0 -37 -9 -64 -19z"/>
<path d="M5026 5250 c28 -10 62 -23 74 -30 13 -7 20 -8 16 -2 -7 12 -110 52
-129 51 -7 0 11 -9 39 -19z"/>
<path d="M6042 5250 c0 -14 2 -19 5 -12 2 6 2 18 0 25 -3 6 -5 1 -5 -13z"/>
<path d="M1918 5253 c12 -2 30 -2 40 0 9 3 -1 5 -23 4 -22 0 -30 -2 -17 -4z"/>
<path d="M2058 5253 c12 -2 30 -2 40 0 9 3 -1 5 -23 4 -22 0 -30 -2 -17 -4z"/>
<path d="M3040 5245 c24 -8 46 -13 48 -11 5 5 -59 26 -77 25 -9 0 4 -7 29 -14z"/>
<path d="M1993 5243 c9 -2 23 -2 30 0 6 3 -1 5 -18 5 -16 0 -22 -2 -12 -5z"/>
<path d="M5580 5234 c0 -10 5 -26 10 -34 8 -11 9 -7 4 15 -8 37 -14 45 -14 19z"/>
<path d="M4505 5214 l-30 -26 33 22 c17 12 32 23 32 26 0 7 -4 5 -35 -22z"/>
<path d="M5205 5208 c52 -42 84 -75 119 -118 15 -19 23 -25 17 -13 -15 30 -98
113 -141 142 -32 21 -32 20 5 -11z"/>
<path d="M3205 5223 c6 -5 37 -34 70 -63 51 -46 54 -48 20 -11 -22 23 -53 52
-70 63 -16 12 -25 17 -20 11z"/>
<path d="M6030 5207 c0 -9 -17 -36 -37 -59 l-37 -43 37 34 c36 34 54 67 43 78
-3 4 -6 -1 -6 -10z"/>
<path d="M2445 5164 l-50 -46 53 42 c45 36 59 51 50 50 -2 0 -25 -21 -53 -46z"/>
<path d="M3140 5206 c0 -3 9 -10 20 -16 11 -6 20 -8 20 -6 0 3 -9 10 -20 16
-11 6 -20 8 -20 6z"/>
<path d="M4523 5170 c-47 -37 -89 -84 -107 -120 -4 -8 3 -1 15 15 30 39 76 84
119 118 19 15 32 27 29 27 -4 0 -29 -18 -56 -40z"/>
<path d="M5150 5193 c32 -22 131 -120 153 -153 16 -22 16 -22 0 8 -21 39 -117
133 -153 151 l-25 12 25 -18z"/>
<path d="M2477 5128 l-64 -63 61 54 c34 30 65 58 71 63 5 4 6 8 2 8 -4 0 -35
-28 -70 -62z"/>
<path d="M2744 5174 c-10 -8 -12 -12 -4 -8 8 5 33 11 55 15 l40 6 -36 2 c-19
0 -44 -6 -55 -15z"/>
<path d="M2858 5183 c12 -2 30 -2 40 0 9 3 -1 5 -23 4 -22 0 -30 -2 -17 -4z"/>
<path d="M2968 5183 c7 -3 16 -2 19 1 4 3 -2 6 -13 5 -11 0 -14 -3 -6 -6z"/>
<path d="M4411 5128 c-28 -35 -51 -67 -51 -73 0 -5 10 5 23 22 12 17 37 50 55
72 19 23 32 41 29 41 -3 0 -28 -28 -56 -62z"/>
<path d="M5692 5145 c26 -27 49 -47 51 -45 2 3 -20 25 -47 50 l-51 44 47 -49z"/>
<path d="M3006 5167 c3 -10 9 -15 12 -12 3 3 0 11 -7 18 -10 9 -11 8 -5 -6z"/>
<path d="M3245 5122 c33 -34 62 -62 63 -62 9 0 -54 68 -87 94 -20 17 -10 3 24
-32z"/>
<path d="M5609 5164 c12 -25 99 -104 114 -104 5 0 -8 13 -30 29 -22 16 -52 44
-67 62 -15 19 -23 24 -17 13z"/>
<path d="M6058 5150 c-9 -16 -35 -42 -59 -59 -23 -17 -38 -31 -32 -31 14 0 91
68 104 92 17 31 5 30 -13 -2z"/>
<path d="M2865 5153 c121 -5 115 1 117 -106 l2 -92 3 90 c5 112 1 116 -111
113 l-81 -2 70 -3z"/>
<path d="M4694 5131 c-33 -16 -78 -44 -99 -62 -38 -34 -95 -113 -95 -133 0 -6
13 12 29 40 54 93 154 159 265 173 l61 8 -50 2 c-36 1 -67 -7 -111 -28z"/>
<path d="M4915 5150 c33 -4 69 -10 80 -14 11 -3 7 0 -10 8 -16 8 -52 15 -80
14 l-50 -1 60 -7z"/>
<path d="M6956 5140 c4 -14 13 -38 20 -55 11 -24 13 -25 8 -5 -4 14 -13 39
-20 55 -11 24 -13 25 -8 5z"/>
<path d="M2765 5140 c-3 -6 1 -7 9 -4 18 7 21 14 7 14 -6 0 -13 -4 -16 -10z"/>
<path d="M4798 5123 c12 -2 30 -2 40 0 9 3 -1 5 -23 4 -22 0 -30 -2 -17 -4z"/>
<path d="M4905 5121 c28 -5 62 -11 75 -15 21 -6 22 -5 7 4 -10 6 -44 13 -75
15 l-57 4 50 -8z"/>
<path d="M5035 5118 c11 -6 32 -20 48 -30 15 -11 27 -17 27 -14 0 8 -73 56
-85 56 -5 0 -1 -6 10 -12z"/>
<path d="M2712 5090 c0 -19 2 -27 5 -17 2 9 2 25 0 35 -3 9 -5 1 -5 -18z"/>
<path d="M2754 5030 c0 -52 1 -74 3 -47 2 26 2 68 0 95 -2 26 -3 4 -3 -48z"/>
<path d="M4748 5113 c7 -3 16 -2 19 1 4 3 -2 6 -13 5 -11 0 -14 -3 -6 -6z"/>
<path d="M2367 5078 c-27 -37 -45 -69 -30 -53 18 19 64 85 59 85 -3 0 -16 -15
-29 -32z"/>
<path d="M4688 5094 c-39 -21 -35 -28 5 -8 37 19 44 24 31 24 -5 -1 -21 -8
-36 -16z"/>
<path d="M5920 5100 c-8 -5 -10 -10 -5 -10 6 0 17 5 25 10 8 5 11 10 5 10 -5
0 -17 -5 -25 -10z"/>
<path d="M7001 5100 c0 -8 6 -28 14 -45 17 -39 18 -21 0 25 -7 19 -14 28 -14
20z"/>
<path d="M3345 5076 c10 -14 19 -26 22 -26 7 0 -17 39 -28 46 -6 3 -3 -5 6
-20z"/>
<path d="M5051 5072 c24 -16 64 -51 88 -78 24 -27 39 -40 33 -29 -20 39 -132
135 -156 135 -6 0 10 -13 35 -28z"/>
<path d="M5798 5083 c6 -2 18 -2 25 0 6 3 1 5 -13 5 -14 0 -19 -2 -12 -5z"/>
<path d="M5863 5083 c9 -2 23 -2 30 0 6 3 -1 5 -18 5 -16 0 -22 -2 -12 -5z"/>
<path d="M4596 5020 c-25 -27 -46 -52 -46 -56 0 -4 1 -5 3 -3 2 2 25 28 52 57
26 28 45 52 43 52 -3 0 -26 -22 -52 -50z"/>
<path d="M5155 5028 c22 -27 41 -48 43 -48 7 0 -36 56 -59 75 -12 11 -5 -1 16
-27z"/>
<path d="M2710 4988 c-3 -37 -1 -63 3 -59 4 4 7 35 5 67 l-3 59 -5 -67z"/>
<path d="M3330 5010 c11 -22 23 -40 25 -40 3 0 -4 18 -15 40 -11 22 -23 40
-25 40 -3 0 4 -18 15 -40z"/>
<path d="M5372 5005 c12 -24 23 -43 26 -41 4 5 -36 86 -43 86 -3 0 5 -20 17
-45z"/>
<path d="M5828 5033 c12 -2 32 -2 45 0 12 2 2 4 -23 4 -25 0 -35 -2 -22 -4z"/>
<path d="M3397 4980 c9 -22 18 -38 20 -36 5 5 -24 76 -31 76 -2 0 3 -18 11
-40z"/>
<path d="M7001 5015 c-1 -6 12 -49 28 -95 16 -47 30 -80 30 -75 1 6 -12 49
-28 95 -16 47 -30 80 -30 75z"/>
<path d="M4386 4993 c-6 -14 -5 -15 5 -6 7 7 10 15 7 18 -3 3 -9 -2 -12 -12z"/>
<path d="M774 4942 c-12 -31 -24 -66 -29 -77 -4 -11 2 -6 13 12 20 30 47 111
40 118 -2 2 -13 -22 -24 -53z"/>
<path d="M4316 4965 c-3 -9 -6 -22 -5 -28 0 -7 5 -1 10 12 5 13 8 26 5 28 -2
2 -6 -3 -10 -12z"/>
<path d="M816 4955 c-9 -26 -7 -32 5 -12 6 10 9 21 6 23 -2 3 -7 -2 -11 -11z"/>
<path d="M2346 4955 c-9 -26 -7 -32 5 -12 6 10 9 21 6 23 -2 3 -7 -2 -11 -11z"/>
<path d="M3024 4935 c1 -19 10 -20 122 -25 67 -3 128 -9 135 -15 8 -5 6 -2 -4
8 -16 14 -39 17 -132 17 -100 0 -114 2 -118 18 -3 13 -4 12 -3 -3z"/>
<path d="M5216 4937 c3 -10 9 -15 12 -12 3 3 0 11 -7 18 -10 9 -11 8 -5 -6z"/>
<path d="M5401 4934 c0 -11 3 -14 6 -6 3 7 2 16 -1 19 -3 4 -6 -2 -5 -13z"/>
<path d="M4361 4924 c0 -11 3 -14 6 -6 3 7 2 16 -1 19 -3 4 -6 -2 -5 -13z"/>
<path d="M2723 4903 c-12 -13 -19 -23 -14 -23 10 0 46 39 40 43 -2 2 -14 -7
-26 -20z"/>
<path d="M3377 4895 c3 -22 7 -42 9 -44 8 -9 2 45 -6 64 -7 14 -8 8 -3 -20z"/>
<path d="M791 4889 c-6 -18 -9 -34 -7 -36 2 -2 9 10 15 28 6 18 9 34 7 36 -2
2 -9 -10 -15 -28z"/>
<path d="M2457 4913 c-3 -5 32 -7 76 -5 147 5 164 8 45 10 -64 1 -119 -1 -121
-5z"/>
<path d="M4302 4895 c0 -16 2 -22 5 -12 2 9 2 23 0 30 -3 6 -5 -1 -5 -18z"/>
<path d="M5361 4904 c0 -11 3 -14 6 -6 3 7 2 16 -1 19 -3 4 -6 -2 -5 -13z"/>
<path d="M4353 4860 c0 -25 2 -35 4 -22 2 12 2 32 0 45 -2 12 -4 2 -4 -23z"/>
<path d="M7076 4875 c4 -16 11 -37 15 -45 6 -10 7 -4 3 15 -4 17 -11 37 -15
45 -6 10 -7 4 -3 -15z"/>
<path d="M2272 4870 c0 -14 2 -19 5 -12 2 6 2 18 0 25 -3 6 -5 1 -5 -13z"/>
<path d="M3068 4883 c6 -2 18 -2 25 0 6 3 1 5 -13 5 -14 0 -19 -2 -12 -5z"/>
<path d="M3432 4870 c0 -14 2 -19 5 -12 2 6 2 18 0 25 -3 6 -5 1 -5 -13z"/>
<path d="M4482 4865 c0 -16 2 -22 5 -12 2 9 2 23 0 30 -3 6 -5 -1 -5 -18z"/>
<path d="M2460 4861 c-5 -11 -9 -35 -9 -53 1 -32 2 -32 8 7 4 22 10 46 14 53
5 6 6 12 3 12 -3 0 -10 -9 -16 -19z"/>
<path d="M2598 4873 c17 -2 47 -2 65 0 17 2 3 4 -33 4 -36 0 -50 -2 -32 -4z"/>
<path d="M4513 4815 c0 -38 2 -53 4 -32 2 20 2 52 0 70 -2 17 -4 1 -4 -38z"/>
<path d="M2422 4850 c0 -14 2 -19 5 -12 2 6 2 18 0 25 -3 6 -5 1 -5 -13z"/>
<path d="M5372 4850 c0 -14 2 -19 5 -12 2 6 2 18 0 25 -3 6 -5 1 -5 -13z"/>
<path d="M5422 4845 c0 -16 2 -22 5 -12 2 9 2 23 0 30 -3 6 -5 -1 -5 -18z"/>
<path d="M5213 4795 c0 -38 2 -53 4 -32 2 20 2 52 0 70 -2 17 -4 1 -4 -38z"/>
<path d="M2312 4830 c0 -14 2 -19 5 -12 2 6 2 18 0 25 -3 6 -5 1 -5 -13z"/>
<path d="M731 4824 c0 -11 3 -14 6 -6 3 7 2 16 -1 19 -3 4 -6 -2 -5 -13z"/>
<path d="M746 4769 c-14 -40 -24 -74 -22 -76 2 -2 15 29 30 68 15 39 25 73 23
76 -2 2 -16 -29 -31 -68z"/>
<path d="M2262 4815 c0 -16 2 -22 5 -12 2 9 2 23 0 30 -3 6 -5 -1 -5 -18z"/>
<path d="M3393 4785 c0 -33 2 -45 4 -27 2 18 2 45 0 60 -2 15 -4 0 -4 -33z"/>
<path d="M3303 4790 c0 -25 2 -35 4 -22 2 12 2 32 0 45 -2 12 -4 2 -4 -23z"/>
<path d="M2413 4745 c0 -44 2 -61 4 -37 2 23 2 59 0 80 -2 20 -4 1 -4 -43z"/>
<path d="M3273 4775 c0 -22 2 -30 4 -17 2 12 2 30 0 40 -3 9 -5 -1 -4 -23z"/>
<path d="M3443 4770 c0 -25 2 -35 4 -22 2 12 2 32 0 45 -2 12 -4 2 -4 -23z"/>
<path d="M4353 4760 c0 -25 2 -35 4 -22 2 12 2 32 0 45 -2 12 -4 2 -4 -23z"/>
<path d="M7076 4777 c9 -39 43 -124 44 -112 0 12 -40 128 -47 135 -2 3 -1 -8
3 -23z"/>
<path d="M4482 4760 c0 -19 2 -27 5 -17 2 9 2 25 0 35 -3 9 -5 1 -5 -18z"/>
<path d="M696 4724 c-9 -26 -14 -49 -12 -51 2 -2 11 17 20 43 9 26 14 49 12
51 -2 2 -11 -17 -20 -43z"/>
<path d="M5422 4730 c0 -19 2 -27 5 -17 2 9 2 25 0 35 -3 9 -5 1 -5 -18z"/>
<path d="M7121 4744 c0 -11 3 -14 6 -6 3 7 2 16 -1 19 -3 4 -6 -2 -5 -13z"/>
<path d="M4302 4730 c0 -14 2 -19 5 -12 2 6 2 18 0 25 -3 6 -5 1 -5 -13z"/>
<path d="M5242 4730 c0 -14 2 -19 5 -12 2 6 2 18 0 25 -3 6 -5 1 -5 -13z"/>
<path d="M5372 4725 c0 -16 2 -22 5 -12 2 9 2 23 0 30 -3 6 -5 -1 -5 -18z"/>
<path d="M4521 4724 c0 -11 3 -14 6 -6 3 7 2 16 -1 19 -3 4 -6 -2 -5 -13z"/>
<path d="M2262 4700 c0 -14 2 -19 5 -12 2 6 2 18 0 25 -3 6 -5 1 -5 -13z"/>
<path d="M2313 4685 c0 -22 2 -30 4 -17 2 12 2 30 0 40 -3 9 -5 -1 -4 -23z"/>
<path d="M2451 4705 c-2 -39 17 -45 146 -45 119 0 124 -1 133 -22 6 -16 9 -18
9 -7 2 31 -25 38 -149 41 -123 3 -124 3 -131 28 -6 21 -7 22 -8 5z"/>
<path d="M3261 4704 c0 -11 3 -14 6 -6 3 7 2 16 -1 19 -3 4 -6 -2 -5 -13z"/>
<path d="M3302 4700 c0 -14 2 -19 5 -12 2 6 2 18 0 25 -3 6 -5 1 -5 -13z"/>
<path d="M7132 4710 c0 -8 8 -37 18 -65 10 -27 18 -43 18 -35 0 8 -8 38 -18
65 -10 28 -18 43 -18 35z"/>
<path d="M3382 4690 c0 -14 2 -19 5 -12 2 6 2 18 0 25 -3 6 -5 1 -5 -13z"/>
<path d="M4361 4700 c0 -8 4 -24 9 -35 5 -13 9 -14 9 -5 0 8 -4 24 -9 35 -5
13 -9 14 -9 5z"/>
<path d="M3432 4680 c0 -14 2 -19 5 -12 2 6 2 18 0 25 -3 6 -5 1 -5 -13z"/>
<path d="M4311 4684 c0 -11 3 -14 6 -6 3 7 2 16 -1 19 -3 4 -6 -2 -5 -13z"/>
<path d="M4530 4694 c0 -6 7 -19 16 -30 14 -18 14 -18 3 6 -14 31 -19 36 -19
24z"/>
<path d="M5227 4681 c-4 -17 -3 -21 5 -13 5 5 8 16 6 23 -3 8 -7 3 -11 -10z"/>
<path d="M4500 4686 c0 -11 30 -66 36 -66 2 0 -3 15 -12 33 -19 36 -24 44 -24
33z"/>
<path d="M5411 4674 c0 -11 3 -14 6 -6 3 7 2 16 -1 19 -3 4 -6 -2 -5 -13z"/>
<path d="M3045 4673 c-11 -2 -30 -6 -41 -8 -12 -3 -25 -12 -28 -22 -6 -16 -5
-16 11 -1 10 9 50 21 88 26 46 6 56 9 30 10 -22 0 -49 -2 -60 -5z"/>
<path d="M3225 4670 l-30 -8 27 -1 c15 0 30 4 33 9 3 6 5 9 3 9 -2 -1 -16 -5
-33 -9z"/>
<path d="M3280 4655 c-10 -12 -38 -15 -130 -15 -100 0 -120 -3 -131 -17 -11
-15 -11 -16 1 -5 10 8 52 12 131 12 94 0 121 3 133 16 16 15 20 24 12 24 -2 0
-9 -7 -16 -15z"/>
<path d="M666 4645 c-3 -9 -6 -22 -5 -28 0 -7 5 -1 10 12 5 13 8 26 5 28 -2 2
-6 -3 -10 -12z"/>
<path d="M2440 4640 c23 -21 31 -21 130 -15 117 8 125 5 133 -50 l4 -30 2 32
c2 57 -18 66 -136 58 -87 -6 -108 -4 -131 10 l-27 16 25 -21z"/>
<path d="M3357 4608 c-9 -28 -12 -47 -8 -42 11 12 34 84 29 89 -2 3 -12 -18
-21 -47z"/>
<path d="M5170 4640 c-6 -11 -8 -20 -6 -20 3 0 10 9 16 20 6 11 8 20 6 20 -3
0 -10 -9 -16 -20z"/>
<path d="M686 4604 c-9 -26 -14 -49 -12 -51 2 -2 11 17 20 43 9 26 14 49 12
51 -2 2 -11 -17 -20 -43z"/>
<path d="M2270 4634 c0 -10 5 -26 10 -34 8 -11 9 -7 4 15 -8 37 -14 45 -14 19z"/>
<path d="M3421 4634 c0 -11 3 -14 6 -6 3 7 2 16 -1 19 -3 4 -6 -2 -5 -13z"/>
<path d="M5192 4612 l-23 -37 26 28 c14 15 25 32 25 38 0 14 -3 11 -28 -29z"/>
<path d="M7121 4640 c0 -8 4 -24 9 -35 5 -13 9 -14 9 -5 0 8 -4 24 -9 35 -5
13 -9 14 -9 5z"/>
<path d="M4560 4636 c0 -2 8 -10 18 -17 15 -13 16 -12 3 4 -13 16 -21 21 -21
13z"/>
<path d="M4330 4625 c0 -5 5 -17 10 -25 5 -8 10 -10 10 -5 0 6 -5 17 -10 25
-5 8 -10 11 -10 5z"/>
<path d="M4575 4571 c40 -43 119 -101 139 -101 6 0 -9 12 -34 26 -25 14 -67
46 -95 72 l-50 47 40 -44z"/>
<path d="M5124 4578 l-29 -33 33 29 c17 17 32 31 32 33 0 8 -8 1 -36 -29z"/>
<path d="M631 4545 c-12 -31 -21 -61 -20 -68 0 -7 11 17 24 53 13 35 22 66 20
68 -1 2 -12 -22 -24 -53z"/>
<path d="M4590 4597 c0 -2 19 -19 43 -37 l42 -33 -34 36 c-30 32 -51 46 -51
34z"/>
<path d="M5320 4570 c-6 -11 -8 -20 -6 -20 3 0 10 9 16 20 6 11 8 20 6 20 -3
0 -10 -9 -16 -20z"/>
<path d="M5376 4573 c-6 -14 -5 -15 5 -6 7 7 10 15 7 18 -3 3 -9 -2 -12 -12z"/>
<path d="M2340 4575 c0 -5 5 -17 10 -25 5 -8 10 -10 10 -5 0 6 -5 17 -10 25
-5 8 -10 11 -10 5z"/>
<path d="M4364 4552 c20 -39 88 -120 117 -139 13 -9 2 6 -24 33 -27 27 -60 68
-74 92 -28 47 -41 57 -19 14z"/>
<path d="M4420 4560 c6 -11 13 -20 16 -20 2 0 0 9 -6 20 -6 11 -13 20 -16 20
-2 0 0 -9 6 -20z"/>
<path d="M7142 4570 c0 -8 6 -31 13 -50 7 -19 13 -28 13 -20 0 8 -6 31 -13 50
-7 19 -13 28 -13 20z"/>
<path d="M5149 4553 c-13 -16 -12 -17 4 -4 9 7 17 15 17 17 0 8 -8 3 -21 -13z"/>
<path d="M2300 4546 c0 -11 30 -66 36 -66 2 0 -3 15 -12 33 -19 36 -24 44 -24
33z"/>
<path d="M3326 4533 c-6 -14 -5 -15 5 -6 7 7 10 15 7 18 -3 3 -9 -2 -12 -12z"/>
<path d="M5030 4519 c-34 -18 -84 -32 -130 -38 l-75 -10 74 5 c73 4 159 33
182 60 6 8 10 13 8 13 -2 -1 -29 -15 -59 -30z"/>
<path d="M7185 4534 c3 -12 12 -41 20 -65 12 -38 14 -39 8 -9 -3 19 -12 49
-19 65 -8 17 -11 21 -9 9z"/>
<path d="M606 4373 c-56 -169 -100 -332 -93 -339 2 -2 14 35 27 83 13 48 47
162 76 253 29 90 51 166 50 168 -2 2 -29 -72 -60 -165z"/>
<path d="M3013 4490 c0 -30 2 -43 4 -27 2 15 2 39 0 55 -2 15 -4 2 -4 -28z"/>
<path d="M5076 4504 c-26 -19 -44 -34 -39 -34 11 0 93 57 93 65 0 7 2 8 -54
-31z"/>
<path d="M5236 4467 c-38 -38 -56 -61 -40 -49 28 20 76 69 103 105 24 31 7 16
-63 -56z"/>
<path d="M3351 4481 c-17 -28 -62 -78 -99 -112 -37 -35 -53 -53 -36 -41 41 28
140 136 159 173 23 44 12 35 -24 -20z"/>
<path d="M4480 4486 c25 -26 59 -57 75 -68 35 -25 32 -22 -55 57 -58 53 -60
54 -20 11z"/>
<path d="M5330 4495 c-27 -44 -112 -117 -181 -155 -30 -16 -49 -30 -44 -30 39
0 204 131 238 189 25 43 14 39 -13 -4z"/>
<path d="M4735 4500 c22 -11 51 -19 65 -19 17 0 11 4 -20 13 -25 7 -54 16 -65
20 -11 3 -2 -3 20 -14z"/>
<path d="M2693 4455 c0 -22 2 -30 4 -17 2 12 2 30 0 40 -3 9 -5 -1 -4 -23z"/>
<path d="M2407 4455 c12 -16 36 -43 54 -60 25 -22 22 -17 -10 20 -59 67 -68
75 -44 40z"/>
<path d="M3235 4418 l-60 -63 63 60 c58 55 67 65 59 65 -1 0 -29 -28 -62 -62z"/>
<path d="M2961 4445 c0 -17 -7 -38 -13 -45 -7 -8 -5 -8 5 1 13 11 17 26 14 45
l-4 29 -2 -30z"/>
<path d="M4745 4458 c13 -9 59 -13 130 -13 71 0 117 4 130 13 18 11 17 11 -10
5 -16 -5 -70 -8 -120 -8 -49 0 -103 3 -120 8 -27 6 -28 6 -10 -5z"/>
<path d="M2367 4425 c10 -13 22 -25 27 -25 5 0 -1 11 -14 25 -30 32 -36 32
-13 0z"/>
<path d="M7181 4445 c0 -5 8 -37 19 -70 11 -33 17 -44 13 -25 -6 38 -31 111
-32 95z"/>
<path d="M3000 4415 c0 -18 -32 -48 -63 -57 -21 -6 -21 -6 -1 -7 25 -1 74 41
74 64 0 8 -2 15 -5 15 -3 0 -5 -7 -5 -15z"/>
<path d="M2740 4411 c0 -6 4 -13 10 -16 6 -3 7 1 4 9 -7 18 -14 21 -14 7z"/>
<path d="M2700 4399 c0 -28 34 -49 76 -47 l39 1 -45 6 c-34 5 -47 12 -57 31
-8 16 -13 19 -13 9z"/>
<path d="M576 4385 c-3 -9 -6 -22 -5 -28 0 -7 5 -1 10 12 5 13 8 26 5 28 -2 2
-6 -3 -10 -12z"/>
<path d="M2838 4383 c17 -2 47 -2 65 0 17 2 3 4 -33 4 -36 0 -50 -2 -32 -4z"/>
<path d="M7236 4360 c4 -19 11 -44 15 -55 6 -14 7 -9 3 15 -4 19 -11 44 -15
55 -6 14 -7 9 -3 -15z"/>
<path d="M2410 4375 c0 -3 28 -26 63 -51 64 -48 151 -94 177 -94 8 0 -11 11
-43 24 -32 13 -89 47 -127 75 -39 28 -70 49 -70 46z"/>
<path d="M4640 4365 c14 -8 30 -14 35 -14 6 0 -1 6 -15 14 -14 8 -29 14 -35
14 -5 0 1 -6 15 -14z"/>
<path d="M2504 4361 c7 -11 46 -35 46 -28 0 3 -12 12 -26 22 -15 9 -23 12 -20
6z"/>
<path d="M4550 4365 c0 -6 90 -58 95 -54 2 2 -19 16 -46 32 -27 15 -49 25 -49
22z"/>
<path d="M5080 4360 c-8 -5 -10 -10 -5 -10 6 0 17 5 25 10 8 5 11 10 5 10 -5
0 -17 -5 -25 -10z"/>
<path d="M2830 4356 c0 -2 7 -6 15 -10 8 -3 15 -1 15 4 0 6 -7 10 -15 10 -8 0
-15 -2 -15 -4z"/>
<path d="M3125 4334 c-44 -27 -146 -61 -222 -74 -35 -5 -40 -8 -18 -9 62 -2
215 50 270 93 30 23 15 18 -30 -10z"/>
<path d="M4728 4333 c7 -3 16 -2 19 1 4 3 -2 6 -13 5 -11 0 -14 -3 -6 -6z"/>
<path d="M2560 4325 c0 -11 104 -54 145 -59 31 -5 26 -2 -20 12 -33 10 -75 26
-92 35 -18 10 -33 15 -33 12z"/>
<path d="M4795 4320 c40 -9 142 -13 134 -6 -2 2 -42 6 -89 9 -59 3 -73 3 -45
-3z"/>
<path d="M4953 4323 c9 -2 25 -2 35 0 9 3 1 5 -18 5 -19 0 -27 -2 -17 -5z"/>
<path d="M4685 4295 c17 -8 39 -14 50 -14 11 0 0 7 -25 15 -56 17 -64 17 -25
-1z"/>
<path d="M4990 4283 c-36 -9 -86 -12 -145 -10 -72 4 -82 3 -50 -5 50 -12 176
-4 235 15 58 19 32 19 -40 0z"/>
<path d="M3075 4259 c-38 -15 -65 -28 -58 -29 16 0 116 39 128 51 12 12 12 12
-70 -22z"/>
<path d="M541 4264 c0 -11 3 -14 6 -6 3 7 2 16 -1 19 -3 4 -6 -2 -5 -13z"/>
<path d="M7236 4250 c4 -19 11 -44 15 -55 6 -14 7 -9 3 15 -4 19 -11 44 -15
55 -6 14 -7 9 -3 -15z"/>
<path d="M2768 4253 c12 -2 30 -2 40 0 9 3 -1 5 -23 4 -22 0 -30 -2 -17 -4z"/>
<path d="M7271 4245 c0 -5 6 -32 13 -60 8 -27 14 -41 14 -30 0 21 -25 107 -27
90z"/>
<path d="M521 4199 c-7 -22 -11 -43 -8 -45 2 -2 9 14 16 37 7 22 11 43 8 45
-2 2 -9 -14 -16 -37z"/>
<path d="M2718 4213 c7 -3 16 -2 19 1 4 3 -2 6 -13 5 -11 0 -14 -3 -6 -6z"/>
<path d="M2938 4213 c7 -3 16 -2 19 1 4 3 -2 6 -13 5 -11 0 -14 -3 -6 -6z"/>
<path d="M2808 4203 c17 -2 47 -2 65 0 17 2 3 4 -33 4 -36 0 -50 -2 -32 -4z"/>
<path d="M501 4124 c0 -11 3 -14 6 -6 3 7 2 16 -1 19 -3 4 -6 -2 -5 -13z"/>
<path d="M7276 4100 c4 -19 11 -44 15 -55 6 -14 7 -9 3 15 -4 19 -11 44 -15
55 -6 14 -7 9 -3 -15z"/>
<path d="M481 4054 c-7 -25 -10 -48 -8 -51 3 -2 10 17 16 43 7 25 10 48 8 51
-3 2 -10 -17 -16 -43z"/>
<path d="M7316 4070 c3 -14 11 -32 16 -40 6 -10 7 -7 2 10 -3 14 -11 32 -16
40 -6 10 -7 7 -2 -10z"/>
<path d="M491 3964 c-6 -32 -9 -59 -7 -61 2 -3 10 21 16 52 6 31 10 59 7 61
-2 2 -9 -21 -16 -52z"/>
<path d="M456 3954 c-4 -20 -5 -38 -3 -40 3 -3 8 11 11 32 4 20 5 38 3 40 -3
3 -8 -11 -11 -32z"/>
<path d="M7351 3954 c0 -11 3 -14 6 -6 3 7 2 16 -1 19 -3 4 -6 -2 -5 -13z"/>
<path d="M7321 3924 c0 -11 3 -14 6 -6 3 7 2 16 -1 19 -3 4 -6 -2 -5 -13z"/>
<path d="M3623 3923 c75 -2 199 -2 275 0 75 1 13 3 -138 3 -151 0 -213 -2
-137 -3z"/>
<path d="M4088 3923 c23 -2 59 -2 80 0 20 2 1 4 -43 4 -44 0 -61 -2 -37 -4z"/>
<path d="M4215 3919 c-2 -3 161 -5 363 -6 202 -1 358 1 347 3 -33 6 -707 9
-710 3z"/>
<path d="M7362 3920 c0 -8 4 -26 8 -40 6 -20 8 -21 8 -5 0 11 -3 29 -8 40 -5
12 -8 14 -8 5z"/>
<path d="M3023 3913 c87 -2 227 -2 310 0 84 1 13 3 -158 3 -170 0 -239 -2
-152 -3z"/>
<path d="M2733 3903 c26 -2 67 -2 90 0 23 2 2 3 -48 3 -49 0 -68 -1 -42 -3z"/>
<path d="M4988 3903 c23 -2 59 -2 80 0 20 2 1 4 -43 4 -44 0 -61 -2 -37 -4z"/>
<path d="M441 3884 c0 -11 3 -14 6 -6 3 7 2 16 -1 19 -3 4 -6 -2 -5 -13z"/>
<path d="M2633 3893 c9 -2 23 -2 30 0 6 3 -1 5 -18 5 -16 0 -22 -2 -12 -5z"/>
<path d="M5128 3893 c12 -2 30 -2 40 0 9 3 -1 5 -23 4 -22 0 -30 -2 -17 -4z"/>
<path d="M7332 3880 c0 -14 2 -19 5 -12 2 6 2 18 0 25 -3 6 -5 1 -5 -13z"/>
<path d="M2568 3883 c6 -2 18 -2 25 0 6 3 1 5 -13 5 -14 0 -19 -2 -12 -5z"/>
<path d="M5191 3886 c2 -2 27 -6 54 -9 32 -4 43 -3 30 3 -19 8 -93 14 -84 6z"/>
<path d="M471 3864 c0 -11 3 -14 6 -6 3 7 2 16 -1 19 -3 4 -6 -2 -5 -13z"/>
<path d="M3063 3873 c48 -2 125 -2 170 0 45 1 6 3 -88 3 -93 0 -130 -2 -82 -3z"/>
<path d="M4653 3873 c37 -2 97 -2 135 0 37 2 6 3 -68 3 -74 0 -105 -1 -67 -3z"/>
<path d="M2763 3863 c26 -2 67 -2 90 0 23 2 2 3 -48 3 -49 0 -68 -1 -42 -3z"/>
<path d="M4968 3863 c17 -2 47 -2 65 0 17 2 3 4 -33 4 -36 0 -50 -2 -32 -4z"/>
<path d="M2375 3822 c-89 -47 -243 -198 -319 -314 -31 -46 -65 -96 -77 -113
-12 -17 -6 -13 14 10 20 22 53 69 74 104 21 36 82 109 138 165 81 81 117 109
184 144 45 23 77 42 69 41 -7 0 -44 -17 -83 -37z"/>
<path d="M5128 3853 c7 -3 16 -2 19 1 4 3 -2 6 -13 5 -11 0 -14 -3 -6 -6z"/>
<path d="M5348 3853 c7 -3 16 -2 19 1 4 3 -2 6 -13 5 -11 0 -14 -3 -6 -6z"/>
<path d="M2570 3843 c1 -13 30 -48 30 -36 0 7 -5 15 -12 19 -8 5 -6 10 8 15
17 7 17 8 -3 8 -13 1 -23 -2 -23 -6z"/>
<path d="M5178 3843 c6 -2 18 -2 25 0 6 3 1 5 -13 5 -14 0 -19 -2 -12 -5z"/>
<path d="M7342 3835 c0 -21 25 -107 27 -90 0 6 -6 33 -13 60 -8 28 -14 41 -14
30z"/>
<path d="M5210 3825 c-6 -8 -10 -19 -8 -24 1 -6 8 1 15 14 13 28 11 31 -7 10z"/>
<path d="M5435 3818 c44 -23 94 -58 140 -97 17 -15 23 -18 15 -7 -28 36 -163
127 -187 126 -4 -1 10 -10 32 -22z"/>
<path d="M455 3800 c-4 -17 -5 -34 -2 -36 2 -3 7 10 11 27 8 42 0 50 -9 9z"/>
<path d="M2421 3807 c-58 -29 -174 -130 -235 -203 -27 -32 -56 -67 -64 -76 -8
-10 -13 -18 -10 -18 3 0 35 36 71 80 75 89 177 175 252 214 28 14 46 26 40 26
-5 0 -30 -10 -54 -23z"/>
<path d="M2543 3807 c12 -13 24 -22 26 -20 6 4 -30 43 -40 43 -5 0 2 -10 14
-23z"/>
<path d="M5325 3820 c27 -12 43 -12 25 0 -8 5 -22 9 -30 9 -10 0 -8 -3 5 -9z"/>
<path d="M417 3788 c-3 -13 -15 -84 -27 -158 -11 -74 -25 -154 -31 -177 -5
-23 -8 -54 -8 -70 1 -23 3 -22 10 12 5 22 16 85 24 140 8 55 21 138 30 184 9
46 14 85 12 88 -3 2 -7 -6 -10 -19z"/>
<path d="M3425 3800 c-121 -5 -233 -11 -250 -13 -16 -2 83 -1 220 2 315 8 679
8 1045 0 157 -3 236 -2 175 2 -189 12 -960 18 -1190 9z"/>
<path d="M5375 3803 c6 -6 28 -20 50 -32 22 -13 31 -15 20 -6 -22 18 -86 53
-70 38z"/>
<path d="M5234 3744 c2 -34 11 -74 20 -90 8 -16 15 -25 16 -21 0 5 -5 17 -11
28 -6 11 -14 48 -19 82 l-9 62 3 -61z"/>
<path d="M7395 3770 c28 -164 33 -192 34 -173 2 35 -21 177 -30 193 -6 10 -7
3 -4 -20z"/>
<path d="M2603 3750 c0 -25 2 -35 4 -22 2 12 2 32 0 45 -2 12 -4 2 -4 -23z"/>
<path d="M3037 3773 c18 -2 50 -2 70 0 21 2 7 4 -32 4 -38 0 -55 -2 -38 -4z"/>
<path d="M4731 3776 c2 -2 49 -6 104 -9 67 -3 85 -2 55 3 -45 9 -167 13 -159
6z"/>
<path d="M5195 3730 c2 -30 8 -56 14 -58 7 -2 9 8 4 30 -14 71 -21 83 -18 28z"/>
<path d="M2572 3750 c0 -14 2 -19 5 -12 2 6 2 18 0 25 -3 6 -5 1 -5 -13z"/>
<path d="M2948 3763 c12 -2 30 -2 40 0 9 3 -1 5 -23 4 -22 0 -30 -2 -17 -4z"/>
<path d="M3698 3763 c128 -2 335 -2 460 0 125 1 20 2 -233 2 -253 0 -355 -1
-227 -2z"/>
<path d="M2868 3753 c6 -2 18 -2 25 0 6 3 1 5 -13 5 -14 0 -19 -2 -12 -5z"/>
<path d="M3263 3753 c37 -2 97 -2 135 0 37 2 6 3 -68 3 -74 0 -105 -1 -67 -3z"/>
<path d="M4452 3753 c37 -2 100 -2 140 0 40 1 10 3 -67 3 -77 0 -110 -1 -73
-3z"/>
<path d="M4963 3753 c9 -2 23 -2 30 0 6 3 -1 5 -18 5 -16 0 -22 -2 -12 -5z"/>
<path d="M442 3725 c0 -16 2 -22 5 -12 2 9 2 23 0 30 -3 6 -5 -1 -5 -18z"/>
<path d="M2808 3743 c6 -2 18 -2 25 0 6 3 1 5 -13 5 -14 0 -19 -2 -12 -5z"/>
<path d="M3098 3743 c17 -2 47 -2 65 0 17 2 3 4 -33 4 -36 0 -50 -2 -32 -4z"/>
<path d="M4708 3743 c18 -2 45 -2 60 0 15 2 0 4 -33 4 -33 0 -45 -2 -27 -4z"/>
<path d="M5028 3743 c6 -2 18 -2 25 0 6 3 1 5 -13 5 -14 0 -19 -2 -12 -5z"/>
<path d="M5525 3699 c134 -118 230 -228 277 -318 13 -24 17 -28 12 -11 -18 69
-187 262 -304 349 -33 24 -29 19 15 -20z"/>
<path d="M2768 3733 c7 -3 16 -2 19 1 4 3 -2 6 -13 5 -11 0 -14 -3 -6 -6z"/>
<path d="M2973 3733 c15 -2 39 -2 55 0 15 2 2 4 -28 4 -30 0 -43 -2 -27 -4z"/>
<path d="M4828 3733 c18 -2 45 -2 60 0 15 2 0 4 -33 4 -33 0 -45 -2 -27 -4z"/>
<path d="M2685 3709 c-22 -12 -44 -26 -50 -31 -5 -6 6 -2 25 8 19 11 49 24 65
31 17 6 23 12 15 12 -8 1 -33 -8 -55 -20z"/>
<path d="M2893 3723 c9 -2 23 -2 30 0 6 3 -1 5 -18 5 -16 0 -22 -2 -12 -5z"/>
<path d="M4933 3723 c9 -2 25 -2 35 0 9 3 1 5 -18 5 -19 0 -27 -2 -17 -5z"/>
<path d="M5111 3726 c10 -9 69 -36 69 -32 0 6 -55 36 -66 36 -4 0 -5 -2 -3 -4z"/>
<path d="M2561 3704 c0 -11 3 -14 6 -6 3 7 2 16 -1 19 -3 4 -6 -2 -5 -13z"/>
<path d="M2838 3713 c7 -3 16 -2 19 1 4 3 -2 6 -13 5 -11 0 -14 -3 -6 -6z"/>
<path d="M5008 3713 c7 -3 16 -2 19 1 4 3 -2 6 -13 5 -11 0 -14 -3 -6 -6z"/>
<path d="M2778 3703 c6 -2 18 -2 25 0 6 3 1 5 -13 5 -14 0 -19 -2 -12 -5z"/>
<path d="M5058 3703 c7 -3 16 -2 19 1 4 3 -2 6 -13 5 -11 0 -14 -3 -6 -6z"/>
<path d="M7371 3694 c0 -11 3 -14 6 -6 3 7 2 16 -1 19 -3 4 -6 -2 -5 -13z"/>
<path d="M2588 3675 c-3 -14 -1 -25 3 -25 5 0 9 11 9 25 0 14 -2 25 -4 25 -2
0 -6 -11 -8 -25z"/>
<path d="M432 3670 c0 -14 2 -19 5 -12 2 6 2 18 0 25 -3 6 -5 1 -5 -13z"/>
<path d="M2694 3674 c-18 -14 -18 -14 6 -3 31 14 36 19 24 19 -6 0 -19 -7 -30
-16z"/>
<path d="M5130 3680 c35 -24 54 -31 30 -11 -14 11 -29 21 -35 21 -5 0 -3 -5 5
-10z"/>
<path d="M5672 3608 c92 -102 129 -151 156 -203 12 -22 21 -36 22 -32 0 14
-32 70 -64 113 -53 69 -171 202 -179 203 -5 1 24 -36 65 -81z"/>
<path d="M2551 3670 c-1 -9 -17 -48 -36 -88 -19 -40 -32 -72 -29 -72 10 0 76
150 71 162 -4 9 -6 8 -6 -2z"/>
<path d="M7382 3650 c0 -14 2 -19 5 -12 2 6 2 18 0 25 -3 6 -5 1 -5 -13z"/>
<path d="M2628 3639 c-21 -11 -38 -22 -38 -24 0 -3 18 4 40 15 22 11 40 23 40
25 0 7 0 7 -42 -16z"/>
<path d="M421 3624 c0 -11 3 -14 6 -6 3 7 2 16 -1 19 -3 4 -6 -2 -5 -13z"/>
<path d="M5250 3580 c17 -30 38 -62 46 -70 9 -8 -1 12 -21 45 -19 32 -40 64
-46 70 -6 5 3 -15 21 -45z"/>
<path d="M5270 3616 c0 -9 49 -86 55 -86 3 0 -7 19 -21 43 -31 49 -34 53 -34
43z"/>
<path d="M7392 3595 c0 -16 4 -43 8 -60 11 -42 11 -1 1 50 -7 34 -9 35 -9 10z"/>
<path d="M411 3565 c-1 -11 -4 -31 -6 -45 l-6 -25 11 25 c6 13 9 33 7 45 -4
19 -4 19 -6 0z"/>
<path d="M2546 3563 c-6 -14 -5 -15 5 -6 7 7 10 15 7 18 -3 3 -9 -2 -12 -12z"/>
<path d="M7431 3550 c0 -14 6 -65 14 -115 8 -49 16 -126 17 -170 l2 -80 4 65
c4 66 -12 240 -28 295 -7 28 -8 28 -9 5z"/>
<path d="M2509 3498 c-6 -13 -29 -48 -51 -78 -36 -50 -36 -52 -6 -19 33 36 84
119 74 119 -3 0 -11 -10 -17 -22z"/>
<path d="M5356 3485 c45 -56 162 -167 205 -193 51 -31 146 -62 183 -61 23 1
19 3 -17 9 -27 5 -83 25 -125 45 -64 30 -94 54 -177 138 -55 56 -86 84 -69 62z"/>
<path d="M2428 3438 c-60 -81 -99 -119 -172 -162 -33 -20 -55 -36 -49 -36 19
0 128 77 164 116 51 56 117 144 107 144 -2 0 -25 -28 -50 -62z"/>
<path d="M5328 3464 c33 -49 184 -187 228 -209 21 -11 45 -27 52 -35 10 -13
11 -13 6 2 -3 9 -35 33 -71 55 -42 24 -97 71 -151 128 -47 50 -76 76 -64 59z"/>
<path d="M7413 3445 c0 -27 2 -38 4 -22 2 15 2 37 0 50 -2 12 -4 0 -4 -28z"/>
<path d="M393 3435 c0 -22 2 -30 4 -17 2 12 2 30 0 40 -3 9 -5 -1 -4 -23z"/>
<path d="M7427 3285 c3 -60 7 -112 9 -114 7 -8 2 123 -6 174 -5 33 -6 12 -3
-60z"/>
<path d="M1911 3293 c-21 -38 -53 -86 -71 -108 -18 -22 -43 -60 -58 -85 -14
-25 -37 -61 -51 -80 -14 -20 -18 -29 -8 -21 10 8 34 41 53 75 20 33 56 87 80
120 46 63 108 166 100 166 -3 0 -23 -30 -45 -67z"/>
<path d="M5885 3310 c19 -28 35 -57 35 -63 0 -6 3 -8 6 -4 8 7 -38 88 -61 107
-9 7 0 -11 20 -40z"/>
<path d="M2356 3305 c-27 -24 -75 -57 -107 -72 -46 -23 -61 -36 -78 -71 -29
-59 -26 -68 4 -11 19 36 35 52 77 72 44 22 175 126 158 126 -3 0 -27 -20 -54
-44z"/>
<path d="M376 3309 c-8 -41 -6 -221 2 -279 4 -26 7 31 7 132 0 98 -1 178 -1
178 -1 0 -4 -14 -8 -31z"/>
<path d="M343 3245 c0 -44 2 -61 4 -37 2 23 2 59 0 80 -2 20 -4 1 -4 -43z"/>
<path d="M1977 3290 c3 -11 7 -20 9 -20 2 0 4 9 4 20 0 11 -4 20 -9 20 -5 0
-7 -9 -4 -20z"/>
<path d="M1943 3268 c-22 -26 -39 -63 -23 -53 6 3 10 11 10 17 0 7 10 22 22
35 12 13 19 23 16 23 -2 0 -14 -10 -25 -22z"/>
<path d="M2021 3279 c-1 -28 36 -51 86 -55 l48 -3 -47 8 c-57 11 -67 17 -78
45 -6 14 -9 16 -9 5z"/>
<path d="M5795 3260 c-16 -17 -16 -20 -3 -15 9 4 19 13 22 21 7 19 2 18 -19
-6z"/>
<path d="M5823 3244 c-37 -40 -28 -46 11 -8 26 27 26 27 49 8 20 -17 19 -16
-2 9 -14 15 -25 26 -25 26 -1 -1 -15 -17 -33 -35z"/>
<path d="M1990 3253 c0 -5 10 -18 23 -29 l22 -19 -20 25 c-11 14 -21 27 -22
29 -2 2 -3 0 -3 -6z"/>
<path d="M2168 3233 c7 -3 16 -2 19 1 4 3 -2 6 -13 5 -11 0 -14 -3 -6 -6z"/>
<path d="M5936 3220 c22 -38 71 -106 87 -122 9 -10 17 -23 17 -29 0 -6 11 -24
25 -41 14 -16 25 -25 25 -20 0 5 -9 17 -20 27 -11 10 -20 23 -20 29 0 6 -25
45 -55 85 -56 75 -76 99 -59 71z"/>
<path d="M5660 3209 c0 -5 5 -7 10 -4 6 3 10 8 10 11 0 2 -4 4 -10 4 -5 0 -10
-5 -10 -11z"/>
<path d="M5900 3211 c0 -6 4 -13 10 -16 6 -3 7 1 4 9 -7 18 -14 21 -14 7z"/>
<path d="M5713 3203 c15 -2 37 -2 50 0 12 2 0 4 -28 4 -27 0 -38 -2 -22 -4z"/>
<path d="M2068 3193 c6 -2 18 -2 25 0 6 3 1 5 -13 5 -14 0 -19 -2 -12 -5z"/>
<path d="M2135 3190 c3 -5 8 -10 11 -10 2 0 4 5 4 10 0 6 -5 10 -11 10 -5 0
-7 -4 -4 -10z"/>
<path d="M5671 3185 c0 -5 8 -26 19 -45 11 -19 19 -30 19 -25 0 6 -8 26 -19
45 -11 19 -19 31 -19 25z"/>
<path d="M5631 3175 c0 -5 8 -26 19 -45 11 -19 19 -30 19 -25 0 6 -8 26 -19
45 -11 19 -19 31 -19 25z"/>
<path d="M1855 3140 c-16 -16 -27 -31 -24 -33 2 -2 17 11 32 30 36 41 31 43
-8 3z"/>
<path d="M5964 3115 c35 -51 42 -57 23 -19 -9 17 -23 37 -33 44 -9 8 -4 -3 10
-25z"/>
<path d="M7433 3090 c0 -36 2 -50 4 -32 2 17 2 47 0 65 -2 17 -4 3 -4 -33z"/>
<path d="M344 3055 c0 -49 1 -71 3 -48 2 23 2 64 0 90 -2 26 -3 8 -3 -42z"/>
<path d="M2090 3079 c-7 -11 -10 -23 -7 -25 2 -2 9 7 15 21 14 30 7 33 -8 4z"/>
<path d="M7471 3084 c0 -11 3 -14 6 -6 3 7 2 16 -1 19 -3 4 -6 -2 -5 -13z"/>
<path d="M2119 3054 c-5 -15 -12 -31 -16 -37 -3 -6 -1 -7 4 -4 11 7 36 67 27
67 -2 0 -9 -12 -15 -26z"/>
<path d="M5691 3046 c7 -15 15 -23 17 -16 3 7 -3 19 -13 28 -15 16 -16 15 -4
-12z"/>
<path d="M5730 3055 c0 -5 5 -17 10 -25 5 -8 10 -10 10 -5 0 6 -5 17 -10 25
-5 8 -10 11 -10 5z"/>
<path d="M1779 3013 c-13 -16 -12 -17 4 -4 9 7 17 15 17 17 0 8 -8 3 -21 -13z"/>
<path d="M6020 3026 c0 -2 8 -10 18 -17 15 -13 16 -12 3 4 -13 16 -21 21 -21
13z"/>
<path d="M7462 3000 c0 -19 2 -27 5 -17 2 9 2 25 0 35 -3 9 -5 1 -5 -18z"/>
<path d="M2025 2950 c-19 -38 -33 -70 -30 -70 2 0 21 32 40 70 19 39 33 70 30
70 -2 0 -21 -31 -40 -70z"/>
<path d="M5785 2940 c19 -38 38 -70 40 -70 3 0 -11 32 -30 70 -19 39 -38 70
-40 70 -3 0 11 -31 30 -70z"/>
<path d="M7422 2985 c0 -16 2 -22 5 -12 2 9 2 23 0 30 -3 6 -5 -1 -5 -18z"/>
<path d="M2038 2887 c-32 -61 -56 -112 -54 -114 1 -2 29 47 60 108 32 61 56
112 54 114 -1 2 -29 -47 -60 -108z"/>
<path d="M6101 2968 c7 -16 16 -28 21 -28 4 0 24 -25 44 -55 20 -30 39 -55 41
-55 8 0 -50 86 -92 135 l-26 30 12 -27z"/>
<path d="M392 2965 c0 -11 4 -33 8 -50 7 -27 8 -27 8 -5 0 14 -4 36 -8 50 -6
20 -8 21 -8 5z"/>
<path d="M1695 2969 c-4 -6 -5 -12 -2 -15 2 -3 7 2 10 11 7 17 1 20 -8 4z"/>
<path d="M1735 2969 c-4 -6 -5 -12 -2 -15 2 -3 7 2 10 11 7 17 1 20 -8 4z"/>
<path d="M6086 2935 c16 -22 29 -42 31 -44 2 -2 3 0 3 5 0 5 -14 25 -31 44
l-30 35 27 -40z"/>
<path d="M5730 2957 c0 -4 19 -42 43 -83 23 -41 50 -90 60 -107 14 -26 16 -28
11 -7 -4 14 -12 31 -18 39 -6 8 -30 48 -53 90 -23 42 -43 72 -43 68z"/>
<path d="M7452 2925 c0 -16 2 -22 5 -12 2 9 2 23 0 30 -3 6 -5 -1 -5 -18z"/>
<path d="M1664 2918 l-19 -23 23 19 c21 18 27 26 19 26 -2 0 -12 -10 -23 -22z"/>
<path d="M1707 2918 c-10 -11 -17 -22 -14 -24 2 -2 12 5 22 16 23 26 16 33 -8
8z"/>
<path d="M7406 2904 c-4 -20 -5 -38 -3 -40 3 -3 8 11 11 32 4 20 5 38 3 40 -3
3 -8 -11 -11 -32z"/>
<path d="M362 2885 c0 -16 2 -22 5 -12 2 9 2 23 0 30 -3 6 -5 -1 -5 -18z"/>
<path d="M1600 2830 c-22 -33 -38 -60 -36 -60 3 0 24 27 46 60 22 33 38 60 36
60 -3 0 -24 -27 -46 -60z"/>
<path d="M7441 2874 c0 -11 3 -14 6 -6 3 7 2 16 -1 19 -3 4 -6 -2 -5 -13z"/>
<path d="M5865 2790 c19 -38 38 -70 40 -70 3 0 -11 32 -30 70 -19 39 -38 70
-40 70 -3 0 11 -31 30 -70z"/>
<path d="M420 2837 c0 -10 7 -34 15 -54 8 -19 15 -43 15 -53 0 -10 7 -24 17
-31 14 -13 15 -12 5 6 -5 11 -19 49 -31 85 -11 36 -20 57 -21 47z"/>
<path d="M1926 2768 c-41 -77 -66 -130 -54 -118 10 10 109 200 104 200 -3 0
-25 -37 -50 -82z"/>
<path d="M7382 2813 c-15 -48 -8 -55 8 -8 7 20 10 38 8 41 -3 2 -10 -13 -16
-33z"/>
<path d="M7431 2828 c0 -9 -4 -25 -7 -35 -5 -17 -5 -17 6 0 6 10 9 25 7 35 -4
15 -5 15 -6 0z"/>
<path d="M6160 2811 c5 -11 15 -23 21 -27 6 -3 3 5 -6 20 -20 30 -30 35 -15 7z"/>
<path d="M381 2804 c0 -11 3 -14 6 -6 3 7 2 16 -1 19 -3 4 -6 -2 -5 -13z"/>
<path d="M6230 2783 c0 -5 12 -20 28 -34 l27 -24 -25 30 c-14 17 -26 32 -27
34 -2 2 -3 0 -3 -6z"/>
<path d="M6201 2755 c8 -11 17 -24 22 -30 28 -37 72 -98 106 -145 61 -86 155
-184 234 -243 77 -58 97 -71 97 -64 0 2 -27 23 -60 46 -74 52 -206 184 -255
254 -20 29 -51 72 -70 97 -38 50 -96 117 -74 85z"/>
<path d="M7394 2714 c-12 -29 -18 -51 -13 -49 9 6 43 94 38 99 -2 2 -13 -20
-25 -50z"/>
<path d="M405 2740 c8 -27 25 -53 32 -46 2 2 -6 19 -17 37 -18 28 -20 29 -15
9z"/>
<path d="M1950 2720 c-11 -22 -18 -40 -15 -40 2 0 14 18 25 40 11 22 18 40 15
40 -2 0 -14 -18 -25 -40z"/>
<path d="M7356 2745 c-9 -26 -7 -32 5 -12 6 10 9 21 6 23 -2 3 -7 -2 -11 -11z"/>
<path d="M5865 2700 c9 -16 18 -30 21 -30 2 0 -2 14 -11 30 -9 17 -18 30 -21
30 -2 0 2 -13 11 -30z"/>
<path d="M1473 2648 c-21 -29 -46 -64 -55 -78 -9 -14 -56 -67 -105 -117 -50
-51 -87 -93 -84 -93 6 0 47 41 134 130 18 20 51 60 72 90 21 30 49 70 63 88
13 17 22 32 19 32 -2 0 -22 -24 -44 -52z"/>
<path d="M5932 2663 c7 -16 18 -35 25 -44 7 -8 13 -20 13 -25 0 -10 211 -224
221 -224 3 0 -41 46 -98 103 -101 100 -116 118 -147 185 -18 39 -30 43 -14 5z"/>
<path d="M6310 2662 c12 -19 28 -36 35 -38 7 -3 27 -26 46 -52 52 -75 133
-160 190 -203 29 -21 55 -39 57 -39 7 0 5 2 -58 52 -59 46 -127 118 -175 183
-16 22 -49 60 -73 85 -38 38 -42 40 -22 12z"/>
<path d="M441 2675 c0 -5 9 -23 20 -40 10 -16 23 -39 28 -50 18 -37 96 -123
156 -172 62 -50 141 -101 130 -83 -3 6 -21 18 -38 27 -18 9 -54 36 -81 59 -26
24 -52 44 -56 44 -9 0 -100 115 -100 127 0 4 -14 28 -30 53 -16 25 -30 41 -29
35z"/>
<path d="M493 2653 c16 -41 210 -250 240 -259 12 -3 31 -14 42 -23 20 -16 20
-16 1 7 -11 12 -25 22 -33 22 -16 0 -233 219 -233 235 0 6 -7 20 -15 31 -14
17 -14 16 -2 -13z"/>
<path d="M7304 2638 c-9 -18 -51 -69 -93 -113 -42 -44 -85 -91 -96 -105 -11
-14 23 18 75 71 81 81 155 179 136 179 -3 0 -13 -15 -22 -32z"/>
<path d="M1470 2572 c-41 -48 -106 -121 -145 -162 -38 -40 -55 -61 -36 -46 19
15 51 46 70 68 20 23 61 68 91 102 52 57 105 126 98 126 -2 0 -37 -39 -78 -88z"/>
<path d="M5905 2630 c9 -16 18 -30 21 -30 2 0 -2 14 -11 30 -9 17 -18 30 -21
30 -2 0 2 -13 11 -30z"/>
<path d="M7334 2608 c-41 -60 -46 -68 -40 -68 7 0 78 102 73 106 -2 3 -17 -15
-33 -38z"/>
<path d="M1838 2605 c-15 -18 -43 -55 -62 -84 -20 -29 -63 -75 -96 -103 -33
-28 -60 -53 -60 -55 0 -7 74 53 90 72 7 8 18 15 24 15 7 0 20 15 28 34 9 18
37 59 63 90 49 61 60 86 13 31z"/>
<path d="M1888 2613 c-15 -18 -46 -73 -35 -63 9 8 57 80 53 80 -1 0 -10 -8
-18 -17z"/>
<path d="M5960 2553 c18 -24 35 -43 37 -43 7 0 -35 56 -54 71 -9 8 -2 -5 17
-28z"/>
<path d="M7255 2496 c-25 -33 -166 -146 -182 -146 -4 -1 -21 -12 -38 -27 -21
-18 -23 -21 -5 -9 14 9 32 19 40 23 55 24 244 193 216 193 -3 0 -17 -15 -31
-34z"/>
<path d="M1794 2469 c-16 -17 -41 -37 -55 -44 -14 -8 -38 -31 -54 -52 l-28
-38 39 37 c21 20 62 57 89 82 28 25 47 46 44 46 -3 0 -18 -14 -35 -31z"/>
<path d="M6060 2437 c36 -37 76 -74 90 -83 28 -18 15 -5 -95 95 l-60 55 65
-67z"/>
<path d="M7029 2373 c-13 -17 -13 -17 6 -3 11 8 22 16 24 17 2 2 0 3 -6 3 -6
0 -17 -8 -24 -17z"/>
<path d="M6216 2347 c3 -10 9 -15 12 -12 3 3 0 11 -7 18 -10 9 -11 8 -5 -6z"/>
<path d="M862 2324 c9 -9 21 -15 27 -13 6 2 -2 10 -17 17 -25 11 -25 11 -10
-4z"/>
<path d="M1224 2318 l-19 -23 23 19 c21 18 27 26 19 26 -2 0 -12 -10 -23 -22z"/>
<path d="M1629 2323 c-13 -16 -12 -17 4 -4 9 7 17 15 17 17 0 8 -8 3 -21 -13z"/>
<path d="M6195 2320 c10 -11 20 -20 23 -20 3 0 -3 9 -13 20 -10 11 -20 20 -23
20 -3 0 3 -9 13 -20z"/>
<path d="M6940 2325 c-14 -8 -20 -14 -14 -15 5 0 19 7 30 15 24 18 16 19 -16
0z"/>
<path d="M1120 2310 c-19 -11 -46 -20 -60 -21 -23 -2 -23 -2 -3 -6 19 -4 103
30 103 42 0 7 -1 7 -40 -15z"/>
<path d="M1460 2282 c-106 -51 -150 -58 -270 -45 l-75 9 43 22 c23 12 42 25
42 27 0 3 -23 -6 -52 -21 -44 -22 -49 -28 -34 -36 10 -6 70 -11 134 -11 l117
-2 105 52 c58 28 101 51 95 51 -5 0 -53 -20 -105 -46z"/>
<path d="M6296 2297 c148 -80 186 -88 334 -71 75 9 90 18 59 34 -21 12 -23 12
-11 -2 12 -14 4 -17 -64 -23 -120 -12 -172 -2 -274 49 -104 53 -135 62 -44 13z"/>
<path d="M1573 2290 c-18 -10 -39 -23 -47 -29 -8 -7 -36 -21 -63 -31 -26 -11
-41 -19 -33 -19 22 -1 164 72 175 89 7 12 9 12 -32 -10z"/>
<path d="M6870 2298 c-14 -5 -54 -8 -90 -5 -38 3 -57 1 -45 -4 32 -12 117 -9
150 6 35 16 22 19 -15 3z"/>
<path d="M955 2290 c11 -5 29 -8 40 -8 16 0 15 2 -5 8 -34 11 -60 11 -35 0z"/>
<path d="M6246 2279 c10 -11 28 -26 39 -31 11 -6 5 3 -14 20 -37 36 -54 43
-25 11z"/>
<path d="M6965 2285 c-16 -8 -23 -14 -14 -15 8 0 24 7 35 15 23 18 18 18 -21
0z"/>
<path d="M850 2280 c8 -5 20 -10 25 -10 6 0 3 5 -5 10 -8 5 -19 10 -25 10 -5
0 -3 -5 5 -10z"/>
<path d="M900 2260 c8 -5 20 -10 25 -10 6 0 3 5 -5 10 -8 5 -19 10 -25 10 -5
0 -3 -5 5 -10z"/>
<path d="M6884 2260 c-5 -5 -50 -20 -99 -34 -50 -13 -83 -25 -75 -25 9 -1 49
8 89 19 77 22 138 49 111 50 -9 0 -20 -4 -26 -10z"/>
<path d="M972 2236 c8 -10 119 -38 124 -33 3 2 -17 10 -43 16 -26 7 -57 15
-68 18 -11 3 -17 2 -13 -1z"/>
<path d="M6310 2234 c0 -7 71 -36 76 -31 2 2 -14 11 -36 20 -22 8 -40 13 -40
11z"/>
<path d="M1388 2203 c7 -3 16 -2 19 1 4 3 -2 6 -13 5 -11 0 -14 -3 -6 -6z"/>
<path d="M1173 2186 c38 -5 96 -5 135 0 60 8 54 9 -68 9 -122 0 -128 -1 -67
-9z"/>
<path d="M6408 2193 c6 -2 18 -2 25 0 6 3 1 5 -13 5 -14 0 -19 -2 -12 -5z"/>
<path d="M6653 2193 c9 -2 23 -2 30 0 6 3 -1 5 -18 5 -16 0 -22 -2 -12 -5z"/>
<path d="M6493 2183 c26 -2 68 -2 95 0 26 2 4 3 -48 3 -52 0 -74 -1 -47 -3z"/>
</g>
</svg>
