<?xml version="1.0" standalone="yes"?>
<svg xmlns="http://www.w3.org/2000/svg" width="1024" height="1024">
<path style="fill:#f4f4f4; stroke:none;" d="M1.25977 1.25977C-5.8357 8.35522 0 46.7234 0 57L0 223L0 822L0 972C0 981.478 -5.32698 1016.15 1.25977 1022.74C7.84653 1029.33 42.522 1024 52 1024L202 1024L801 1024L967 1024C977.277 1024 1015.64 1029.84 1022.74 1022.74C1029.33 1016.15 1024 981.478 1024 972L1024 822L1024 223L1024 57C1024 46.7234 1029.84 8.35522 1022.74 1.25977C1015.64 -5.83569 977.277 0 967 0L801 0L202 0L52 0C42.522 0 7.84653 -5.32703 1.25977 1.25977z"/>
</svg>
